<?xml version="1.0" encoding="utf-8"?>
<!-- Generator: Adobe Illustrator 21.1.0, SVG Export Plug-In . SVG Version: 6.00 Build 0)  -->
<svg version="1.1" id="Ebene_1" xmlns="http://www.w3.org/2000/svg" xmlns:xlink="http://www.w3.org/1999/xlink" x="0px" y="0px"
	 viewBox="0 0 363 100" style="enable-background:new 0 0 363 100;" xml:space="preserve">
<style type="text/css">
	.st0{clip-path:url(#SVGID_2_);}
	.st1{fill:#000000;}
</style>
<g>
	<defs>
		<rect id="SVGID_1_" x="116.1" y="-69.2" width="289.2" height="163.1"/>
	</defs>
	<clipPath id="SVGID_2_">
		<use xlink:href="#SVGID_1_"  style="overflow:visible;"/>
	</clipPath>
	<g class="st0">
		<path class="st1" d="M132,76.5v-6c2.1,0,3.5-0.3,4.2-0.9s1.1-2,1.1-4.1V33.7h8.7v32c0,1.5-0.1,2.9-0.2,3.9c-0.2,1.1-0.4,2.1-0.9,3
			c-0.4,0.9-1,1.7-1.7,2.2c-0.7,0.5-1.7,1-2.8,1.3c-1.1,0.3-2.5,0.5-4.1,0.5H132z"/>
		<path class="st1" d="M150.6,61.9V47.8c0-9.9,4.2-14.9,12.6-14.9c8.4,0,12.7,5,12.7,14.9v13.9c0,1.7-0.1,3.2-0.4,4.7
			c-0.3,1.4-0.7,2.8-1.3,4.1c-0.6,1.3-1.4,2.4-2.4,3.3c-1,0.9-2.2,1.6-3.6,2.1c-1.5,0.5-3.1,0.8-5,0.8c-1.9,0-3.5-0.3-5-0.8
			c-1.5-0.5-2.7-1.2-3.6-2.1c-0.9-0.9-1.7-1.9-2.3-3.2s-1.1-2.6-1.3-4C150.7,65.2,150.6,63.6,150.6,61.9z M167.1,63.8V45.6
			c0-4.1-1.3-6.2-3.9-6.2c-0.8,0-1.4,0.2-2,0.6c-0.5,0.4-0.9,0.9-1.2,1.6c-0.3,0.7-0.4,1.3-0.5,2c-0.1,0.6-0.2,1.4-0.2,2.1v18.2
			c0,4.1,1.3,6.2,3.9,6.2C165.8,70,167.1,68,167.1,63.8z"/>
		<path class="st1" d="M184.1,75.8V40h-6.3v-6.4h21.3V40h-6.2v35.7H184.1z"/>
		<path class="st1" d="M208.6,75.8V40h-6.3v-6.4h21.3V40h-6.2v35.7H208.6z"/>
	</g>
</g>
<g>
	<path class="st1" d="M246.1,75.6V33.7h4.7l8.3,36.1c1-4.7,2.4-10.5,4-17.4c1.7-6.8,3.1-13.1,4.2-18.8h4.7v41.8h-3.4V42.1l-7.9,33.5
		h-3.3l-7.9-33.4v33.4H246.1z"/>
	<path class="st1" d="M279.3,75.6V33.7h15v3h-11.2v15.8h8v2.8h-8v17.3h11.2v3H279.3z"/>
	<path class="st1" d="M299.2,75.6V33.7h9.7c1.6,0,3.1,0.2,4.3,0.6c1.3,0.4,2.3,1,3.1,1.8c0.8,0.7,1.5,1.6,2,2.7
		c0.5,1.1,0.9,2.2,1.1,3.4c0.2,1.2,0.3,2.5,0.3,4v17c0,8.2-3.7,12.3-11,12.3H299.2z M303,72.6h5.9c4.8,0,7.2-2.9,7.2-8.6V45.4
		c0-5.8-2.4-8.7-7.2-8.7H303V72.6z"/>
	<path class="st1" d="M326.3,75.6V33.7h3.8v41.8H326.3z"/>
	<path class="st1" d="M338.7,75.6h-3.8l8.5-41.8h4.9l8.5,41.8H353l-2.1-10.9h-9.9L338.7,75.6z M341.4,62.2h9l-4.5-24.6L341.4,62.2z"
		/>
</g>
<g>
	<path class="st1" d="M239.9,62.2h-9.8v-2.4c0-1.6,0.9-2.4,2.8-2.4c0.8,0,1.4,0.2,1.8,0.6c0.4,0.4,0.6,1,0.6,1.8v1h4.5V62.2z
		 M234.3,60.8v-0.3c0-0.3,0-0.6-0.1-0.8c0-0.2-0.1-0.4-0.2-0.5c-0.1-0.2-0.2-0.3-0.4-0.3c-0.2-0.1-0.4-0.1-0.7-0.1
		c-0.3,0-0.6,0-0.8,0.1c-0.2,0-0.4,0.1-0.5,0.3c-0.1,0.1-0.2,0.3-0.3,0.5c-0.1,0.2-0.1,0.5-0.1,0.8v0.3H234.3z"/>
	<path class="st1" d="M239.8,52.9c0.1,0.3,0.2,0.7,0.2,1.1c0,0.4-0.1,0.8-0.2,1.1c-0.1,0.3-0.3,0.6-0.5,0.8
		c-0.2,0.2-0.5,0.4-0.8,0.5c-0.3,0.1-0.6,0.2-1,0.3c-0.4,0.1-0.8,0.1-1.2,0.1h-6.3v-1.4h6.3c0.3,0,0.6,0,0.8,0c0.2,0,0.4,0,0.7-0.1
		c0.2-0.1,0.4-0.1,0.6-0.2c0.1-0.1,0.3-0.2,0.3-0.4c0.1-0.2,0.1-0.4,0.1-0.6c0-0.2,0-0.5-0.1-0.6c-0.1-0.2-0.2-0.3-0.3-0.4
		c-0.1-0.1-0.3-0.2-0.6-0.2c-0.2-0.1-0.4-0.1-0.7-0.1c-0.2,0-0.5,0-0.8,0h-6.3v-1.4h6.3c0.4,0,0.8,0,1.2,0.1c0.4,0.1,0.7,0.1,1,0.3
		c0.3,0.1,0.6,0.3,0.8,0.5C239.6,52.3,239.7,52.6,239.8,52.9z"/>
	<path class="st1" d="M239.9,50h-9.8v-1l6-2.4h-6v-1.4h9.8v1l-6.5,2.4h6.5V50z"/>
	<path class="st1" d="M239.9,43.9h-9.8v-1.4h4.2l-4.2-2v-1.7l3.8,2l5.9-2.4v1.7l-4.5,1.7l1.4,0.7h3.1V43.9z"/>
	<path class="st1" d="M239.9,36.9h-8.5v1.7h-1.2v-4.8h1.2v1.7h8.5V36.9z"/>
</g>
<rect x="230.2" y="66.3" class="st1" width="9.7" height="9.4"/>
<path class="st1" d="M73.8,8v45.3c0,2.7-0.1,4.9-0.4,6.8c-0.3,1.9-0.7,3.6-1.4,5.2c-0.7,1.6-1.7,2.9-2.9,3.8
	c-1.2,0.9-2.8,1.7-4.7,2.2c-1.9,0.5-4.2,0.8-7,0.8h-7.2V61.8c3.5,0.1,5.9-0.5,7.1-1.6c1.2-1.1,1.8-3.5,1.8-7V3.3
	c-2.4-0.4-4.9-0.6-7.4-0.6c-26.5,0-48,21.5-48,48c0,26.5,21.5,48,48,48c26.5,0,48-21.5,48-48C99.7,32.1,89.2,16,73.8,8z"/>
</svg>
