<?xml version="1.0" encoding="utf-8"?>
<svg version="1.1" id="Ebene_1" xmlns="http://www.w3.org/2000/svg" xmlns:xlink="http://www.w3.org/1999/xlink" x="0px" y="0px"
	 viewBox="0 0 189 110" style="enable-background:new 0 0 189 110;" xml:space="preserve">
<style type="text/css">
	.st0{clip-path:url(#SVGID_2_);}
	.st1{fill:#FFFFFF;}
</style>
<g>
	<defs>
		<rect id="SVGID_1_" x="19.7" y="7.8" width="164.1" height="95.1"/>
	</defs>
	<clipPath id="SVGID_2_">
		<use xlink:href="#SVGID_1_"  style="overflow:visible;"/>
	</clipPath>
	<g class="st0">
		<path class="st1" d="M28.7,92.8v-3.5c1.2,0,2-0.2,2.4-0.5s0.6-1.2,0.6-2.4V67.8h5v18.6c0,0.9,0,1.7-0.1,2.3
			c-0.1,0.6-0.2,1.2-0.5,1.8c-0.2,0.5-0.6,1-1,1.3c-0.4,0.3-0.9,0.6-1.6,0.7c-0.6,0.2-1.4,0.3-2.4,0.3H28.7z"/>
		<path class="st1" d="M39.2,84.2V76c0-5.8,2.4-8.7,7.2-8.7c4.8,0,7.2,2.9,7.2,8.7v8.1c0,1-0.1,1.9-0.2,2.7s-0.4,1.6-0.7,2.4
			s-0.8,1.4-1.3,1.9s-1.2,0.9-2.1,1.2s-1.8,0.4-2.8,0.4c-1.1,0-2-0.1-2.8-0.4s-1.5-0.7-2-1.2c-0.5-0.5-1-1.1-1.3-1.9
			s-0.6-1.5-0.7-2.3C39.3,86.1,39.2,85.2,39.2,84.2z M48.6,85.3V74.7c0-2.4-0.7-3.6-2.2-3.6c-0.4,0-0.8,0.1-1.1,0.3
			s-0.5,0.5-0.7,0.9c-0.1,0.4-0.2,0.8-0.3,1.1c-0.1,0.4-0.1,0.8-0.1,1.2v10.6c0,2.4,0.7,3.6,2.2,3.6C47.9,89,48.6,87.8,48.6,85.3z"
			/>
		<path class="st1" d="M58.3,92.3V71.5h-3.6v-3.7h12.1v3.7h-3.5v20.8H58.3z"/>
		<path class="st1" d="M72.1,92.3V71.5h-3.6v-3.7h12.1v3.7h-3.5v20.8H72.1z"/>
	</g>
</g>
<g>
	<path class="st1" d="M93.4,92.2V67.8h2.7l4.7,21.1c0.6-2.8,1.3-6.1,2.3-10.1c1-4,1.8-7.6,2.4-10.9h2.6v24.4h-1.9V72.7l-4.5,19.5
		h-1.9l-4.5-19.5v19.5H93.4z"/>
	<path class="st1" d="M112.3,92.2V67.8h8.5v1.7h-6.3v9.2h4.5v1.6h-4.5v10.1h6.3v1.7H112.3z"/>
	<path class="st1" d="M123.5,92.2V67.8h5.5c0.9,0,1.7,0.1,2.5,0.4c0.7,0.3,1.3,0.6,1.8,1c0.5,0.4,0.9,1,1.1,1.6
		c0.3,0.6,0.5,1.3,0.6,2c0.1,0.7,0.2,1.5,0.2,2.3V85c0,4.8-2.1,7.2-6.2,7.2H123.5z M125.7,90.5h3.3c2.7,0,4.1-1.7,4.1-5V74.6
		c0-3.4-1.4-5.1-4.1-5.1h-3.3V90.5z"/>
	<path class="st1" d="M138.9,92.2V67.8h2.2v24.4H138.9z"/>
	<path class="st1" d="M146,92.2h-2.2l4.8-24.4h2.8l4.8,24.4h-2.2l-1.2-6.3h-5.6L146,92.2z M147.5,84.4h5.1L150,70L147.5,84.4z"/>
</g>
<g>
	<path class="st1" d="M89.9,84.4h-5.5V83c0-0.9,0.5-1.4,1.6-1.4c0.5,0,0.8,0.1,1,0.4s0.4,0.6,0.4,1v0.6h2.6V84.4z M86.7,83.6v-0.2
		c0-0.2,0-0.3,0-0.4s-0.1-0.2-0.1-0.3c-0.1-0.1-0.1-0.2-0.2-0.2c-0.1,0-0.2-0.1-0.4-0.1c-0.2,0-0.4,0-0.5,0c-0.1,0-0.2,0.1-0.3,0.2
		c-0.1,0.1-0.1,0.2-0.2,0.3c0,0.1,0,0.3,0,0.5v0.2H86.7z"/>
	<path class="st1" d="M89.9,79c0.1,0.2,0.1,0.4,0.1,0.6s0,0.5-0.1,0.6s-0.2,0.3-0.3,0.5c-0.1,0.1-0.3,0.2-0.4,0.3
		c-0.2,0.1-0.4,0.1-0.6,0.2c-0.2,0-0.4,0-0.7,0h-3.6v-0.8h3.6c0.2,0,0.3,0,0.4,0c0.1,0,0.2,0,0.4-0.1c0.1,0,0.2-0.1,0.3-0.1
		c0.1-0.1,0.1-0.1,0.2-0.2s0.1-0.2,0.1-0.4s0-0.3-0.1-0.4S89.1,79.1,89,79c-0.1-0.1-0.2-0.1-0.3-0.1c-0.1,0-0.3,0-0.4-0.1
		c-0.1,0-0.3,0-0.4,0h-3.6V78h3.6c0.3,0,0.5,0,0.7,0c0.2,0,0.4,0.1,0.6,0.2c0.2,0.1,0.3,0.2,0.4,0.3S89.8,78.8,89.9,79z"/>
	<path class="st1" d="M89.9,77.3h-5.5v-0.6l3.4-1.4h-3.4v-0.8h5.5v0.6l-3.7,1.4h3.7V77.3z"/>
	<path class="st1" d="M89.9,73.7h-5.5v-0.8h2.4l-2.4-1.2v-1l2.2,1.2l3.4-1.4v1l-2.6,1l0.8,0.4h1.8V73.7z"/>
	<path class="st1" d="M89.9,69.7h-4.8v1h-0.7v-2.8h0.7v1h4.8V69.7z"/>
</g>
<rect x="84.4" y="86.8" class="st1" width="5.5" height="5.5"/>
<path class="st1" d="M101.6,21.7v18.5c0,1.1-0.1,2-0.2,2.8c-0.1,0.8-0.3,1.5-0.6,2.1s-0.7,1.2-1.2,1.6c-0.5,0.4-1.1,0.7-1.9,0.9
	c-0.8,0.2-1.7,0.3-2.8,0.3H92v-4.2c1.4,0,2.4-0.2,2.9-0.7s0.7-1.4,0.7-2.9V19.8c-1-0.2-2-0.3-3-0.3C81.8,19.5,73,28.3,73,39.1
	s8.8,19.6,19.6,19.6s19.6-8.8,19.6-19.6C112.2,31.5,107.9,25,101.6,21.7z"/>
</svg>
