<?xml version="1.0" encoding="utf-8"?>
<!-- Generator: Adobe Illustrator 22.1.0, SVG Export Plug-In . SVG Version: 6.00 Build 0)  -->
<svg version="1.1" id="Ebene_1" xmlns="http://www.w3.org/2000/svg" xmlns:xlink="http://www.w3.org/1999/xlink" x="0px" y="0px"
	 viewBox="0 0 500 500" style="enable-background:new 0 0 500 500;" xml:space="preserve">
<style type="text/css">
	.st0{fill:#000000;}
</style>
<path class="st0" d="M330.6,35.1v165.3c0,9.7-0.5,18-1.4,24.8c-0.9,6.8-2.7,13.2-5.2,19c-2.6,5.8-6,10.5-10.5,13.9
	c-4.4,3.4-10.1,6.1-17.2,8c-7,1.9-15.5,2.9-25.4,2.9h-26.4v-37.7c13,0.2,21.6-1.7,25.9-5.8s6.5-12.6,6.5-25.5V17.5
	c-8.8-1.4-17.9-2.1-27.1-2.1c-96.7,0-175.2,78.4-175.2,175.2S153.3,365.8,250,365.8s175.2-78.4,175.2-175.2
	C425.2,123,386.8,64.3,330.6,35.1z"/>
</svg>
