<?xml version="1.0" encoding="utf-8"?>
<!-- Generator: Adobe Illustrator 22.1.0, SVG Export Plug-In . SVG Version: 6.00 Build 0)  -->
<svg version="1.1" id="Ebene_1" xmlns="http://www.w3.org/2000/svg" xmlns:xlink="http://www.w3.org/1999/xlink" x="0px" y="0px"
	 viewBox="0 0 500 500" style="enable-background:new 0 0 500 500;" xml:space="preserve">
<style type="text/css">
	.st0{fill:#FFFFFF;}
	.st1{stroke:#ffffff;stroke-width:4;stroke-miterlimit:10;}
</style>
<line class="st1" x1="316" y1="165" x2="275" y2="241"/>
<line class="st1" x1="323" y1="181" x2="282" y2="257"/>
<line class="st1" x1="307" y1="154" x2="266" y2="230"/>
<path d="M261,53.5l76.1,169.4c4.5,10,7.8,18.7,10,26.1c2.2,7.4,3.3,14.7,3.4,21.9c0.1,7.2-1.4,13.5-4.3,19.1
	c-2.9,5.6-7.6,10.9-13.9,16.1c-6.3,5.2-14.5,10.1-24.7,14.6l-27,12.1l-17.4-38.6c13.4-5.8,21.3-11.7,23.9-17.9
	c2.6-6.2,0.8-15.9-5.1-29.2l-84-187c-9.7,2.7-19.3,6.1-28.7,10.3C70.2,115.1,26,231.5,70.5,330.6s161,143.4,260.1,98.8
	s143.4-161,98.8-260.1C398.3,100,332,57.6,261,53.5z"/>
<circle class="st0" cx="172.5" cy="352.5" r="27.5"/>
</svg>
