<?xml version="1.0" encoding="utf-8"?>
<!-- Generator: Adobe Illustrator 22.1.0, SVG Export Plug-In . SVG Version: 6.00 Build 0)  -->
<svg version="1.1" id="Ebene_1" xmlns="http://www.w3.org/2000/svg" xmlns:xlink="http://www.w3.org/1999/xlink" x="0px" y="0px"
	 viewBox="0 0 500 500" style="enable-background:new 0 0 500 500;" xml:space="preserve">
<style type="text/css">
	.st0{fill:#FFFFFF;}
</style>
<path d="M75.3,159.3l185.7,0.1c10.9,0,20.2,0.5,27.9,1.6c7.7,1.1,14.8,3,21.3,5.9c6.6,2.9,11.8,6.8,15.6,11.8c3.9,5,6.9,11.4,9,19.3
	c2.1,7.9,3.2,17.4,3.2,28.5l0,29.6l-42.4,0c0.2-14.6-1.9-24.3-6.5-29.1c-4.6-4.9-14.1-7.3-28.7-7.3l-205-0.1
	c-1.5,9.9-2.3,20.1-2.4,30.4c-0.1,108.7,88,196.8,196.7,196.9c108.7,0.1,196.8-88,196.9-196.7c0.1-108.7-88-196.8-196.7-196.9
	C174.1,53.2,108.2,96.3,75.3,159.3z"/>
<rect x="287" y="259" transform="matrix(0.9958 9.172391e-02 -9.172391e-02 0.9958 33.8762 -25.0992)" class="st0" width="6" height="194"/>
<rect x="335" y="260" transform="matrix(0.9995 -3.159413e-02 3.159413e-02 0.9995 -11.1104 10.857)" class="st0" width="6" height="194"/>
<rect x="324" y="260" transform="matrix(0.9999 -1.112956e-02 1.112956e-02 0.9999 -3.953 3.6615)" class="st0" width="6" height="194"/>
<rect x="300" y="260" transform="matrix(0.9991 4.340007e-02 -4.340007e-02 0.9991 15.7793 -12.8138)" class="st0" width="6" height="194"/>
<rect x="312" y="260" transform="matrix(0.9999 1.130791e-02 -1.130791e-02 0.9999 4.0571 -3.5392)" class="st0" width="6" height="194"/>
</svg>
