<?xml version="1.0" encoding="utf-8"?>
<!-- Generator: Adobe Illustrator 22.1.0, SVG Export Plug-In . SVG Version: 6.00 Build 0)  -->
<svg version="1.1" id="Ebene_1" xmlns="http://www.w3.org/2000/svg" xmlns:xlink="http://www.w3.org/1999/xlink" x="0px" y="0px"
	 viewBox="0 0 500 500" style="enable-background:new 0 0 500 500;" xml:space="preserve">
<style type="text/css">
	.st0{fill:#FFFFFF;}
</style>
<path d="M424.7,340.7l-185.7-0.1c-10.9,0-20.2-0.5-27.9-1.6c-7.7-1.1-14.8-3-21.3-5.9c-6.6-2.9-11.8-6.8-15.6-11.8
	c-3.9-5-6.9-11.4-9-19.3c-2.1-7.9-3.2-17.4-3.2-28.5l0-29.6l42.4,0c-0.2,14.6,1.9,24.3,6.5,29.1c4.6,4.9,14.1,7.3,28.7,7.3l205,0.1
	c1.5-9.9,2.3-20.1,2.4-30.4c0.1-108.7-88-196.8-196.7-196.9c-108.7-0.1-196.8,88-196.9,196.7c-0.1,108.7,88,196.8,196.7,196.9
	C325.9,446.8,391.8,403.7,424.7,340.7z"/>
<g>
	<rect x="163" y="205" class="st0" width="6" height="37"/>
	<rect x="171.5" y="205" class="st0" width="6" height="37"/>
	<rect x="180" y="205" class="st0" width="6" height="37"/>
	<rect x="188.5" y="205" class="st0" width="6" height="37"/>
	<rect x="197" y="205" class="st0" width="6" height="37"/>
</g>
<path class="st0" d="M171,181c0,0-10.3,3,3,10s33-6,35,2c0,0,0.7,10-8.1,11s-36.8,0-36.8,0S144.5,186,171,181z"/>
</svg>
