<?xml version="1.0" standalone="no"?>
<!DOCTYPE svg PUBLIC "-//W3C//DTD SVG 20010904//EN"
 "http://www.w3.org/TR/2001/REC-SVG-20010904/DTD/svg10.dtd">
<svg version="1.0" xmlns="http://www.w3.org/2000/svg"
 width="1024.000000pt" height="1024.000000pt" viewBox="0 0 1024.000000 1024.000000"
 preserveAspectRatio="xMidYMid meet">
<metadata>
Created by potrace 1.14, written by Peter Selinger 2001-2017
</metadata>
<g transform="translate(0.000000,1024.000000) scale(0.100000,-0.100000)"
fill="#000000" stroke="none">
<path d="M4828 10235 c-2 -1 -48 -5 -103 -9 -55 -3 -111 -8 -125 -10 -14 -3
-52 -7 -85 -10 -33 -3 -69 -8 -80 -10 -11 -2 -42 -7 -70 -10 -44 -6 -85 -13
-190 -32 -86 -15 -231 -47 -315 -70 -52 -13 -102 -26 -111 -28 -9 -3 -47 -14
-85 -25 -38 -11 -72 -21 -76 -21 -5 0 -32 -9 -60 -19 -29 -11 -93 -34 -143
-51 -49 -18 -103 -38 -120 -45 -16 -7 -61 -25 -100 -40 -177 -72 -443 -203
-607 -300 -9 -5 -36 -21 -59 -33 -75 -41 -300 -192 -418 -280 -140 -104 -109
-79 -281 -224 -593 -502 -1081 -1161 -1385 -1873 -47 -110 -109 -268 -107
-272 0 -1 -10 -31 -24 -65 -20 -51 -69 -205 -89 -278 -22 -78 -65 -249 -69
-269 -3 -14 -12 -57 -20 -96 -21 -97 -33 -165 -41 -224 -2 -14 -4 -26 -5 -26
-1 0 -3 -13 -5 -30 -2 -16 -7 -48 -10 -70 -3 -22 -8 -60 -10 -85 -3 -25 -7
-61 -10 -80 -28 -236 -28 -798 0 -1060 5 -48 26 -205 30 -230 1 -8 6 -35 10
-60 5 -37 30 -172 51 -279 7 -36 83 -331 94 -366 174 -547 367 -956 651 -1381
56 -84 236 -329 260 -354 8 -8 35 -40 60 -72 112 -138 353 -392 494 -519 236
-213 616 -494 825 -611 25 -14 70 -40 100 -58 64 -38 309 -162 422 -214 225
-102 671 -258 837 -291 9 -2 54 -12 101 -24 47 -11 96 -22 110 -25 14 -2 36
-7 50 -10 14 -3 39 -8 55 -11 17 -3 68 -11 115 -19 89 -15 142 -23 225 -32 28
-3 64 -7 80 -9 137 -20 743 -28 915 -12 47 4 110 10 140 12 30 3 69 7 85 10
17 2 53 7 80 10 43 6 93 14 300 50 200 35 510 122 770 217 1019 370 1927 1092
2519 2003 111 172 103 159 171 280 30 55 60 107 65 115 20 33 131 260 170 350
134 306 251 666 316 972 19 91 26 127 30 153 3 17 9 55 14 85 5 30 12 73 15
95 4 22 8 51 10 65 2 14 7 52 10 85 4 33 9 74 11 90 26 215 26 874 -1 1036 -2
13 -6 51 -9 84 -4 33 -8 71 -10 85 -3 14 -10 61 -16 105 -16 111 -18 124 -23
132 -3 5 -8 33 -12 63 -4 30 -11 63 -16 73 -5 9 -8 17 -5 17 2 0 -1 19 -6 43
-5 23 -11 51 -14 62 -28 146 -182 624 -248 770 -8 17 -28 64 -46 105 -69 161
-182 378 -296 570 -74 126 -243 378 -301 450 -7 8 -44 56 -84 105 -67 84 -136
165 -219 259 -76 86 -304 308 -416 407 -260 228 -453 366 -794 571 -265 158
-342 188 -496 188 -217 0 -295 -103 -320 -425 -3 -49 -8 -1116 -9 -2370 -1
-1254 -5 -2291 -8 -2305 -3 -14 -8 -54 -12 -90 -10 -102 -24 -187 -55 -330
-80 -376 -294 -734 -561 -939 -73 -56 -202 -142 -219 -146 -3 -1 -40 -18 -82
-38 -67 -31 -147 -61 -263 -97 -48 -15 -158 -39 -211 -46 -27 -3 -51 -8 -54
-9 -30 -18 -483 -26 -652 -12 -104 9 -250 33 -367 60 l-54 13 0 503 c0 276 2
504 5 506 2 2 58 -7 124 -21 178 -37 325 -53 459 -49 161 5 239 21 352 70 160
71 283 242 334 465 17 73 19 83 25 135 3 28 8 61 11 75 11 45 12 5241 2 5303
-17 101 -57 171 -121 211 -58 37 -116 43 -411 44 -157 0 -287 -1 -289 -3z"/>
</g>
</svg>
