<svg width="3024" height="178" viewBox="0 0 3024 178" xmlns="http://www.w3.org/2000/svg">
    <path id="Pfad" fill="#eaebea" stroke="none" d="M -735.213989 97.486603 C -754.078003 97.486603 -831.411011 111.704002 -831.411011 111.704002 L -831.411011 111.713997 L -857.5 177.5 L 739.827026 177.5 L 739.827026 177 L 2309.639893 177 L 2309.639893 177.125 L 3880.879883 177.125 L 3880.879883 2.020737 C 3880.879883 2.020737 3863.909912 -0.011719 3854.469971 -0.011719 C 3845.040039 -0.011719 3843.149902 -0.011719 3831.830078 4.053177 C 3820.52002 8.118073 3780.899902 2.020737 3780.899902 2.020737 L 3769.590088 4.053177 C 3769.590088 4.053177 3731.870117 8.118073 3709.22998 8.118073 C 3693.159912 8.118073 3651.409912 10.167603 3627.199951 11.356003 C 3617.320068 11.841293 3610.360107 12.182999 3609.26001 12.182999 L 3603.600098 12.182999 C 3602.060059 12.182999 3598.290039 12.483505 3593.310059 12.880295 C 3579.97998 13.942795 3557.98999 15.695206 3547.01001 14.215393 C 3537.97998 12.998596 3516.100098 20.520004 3497.969971 26.752808 C 3485.820068 30.930908 3475.350098 34.529999 3471.560059 34.529999 C 3464.080078 34.529999 3450.659912 39.640503 3439.780029 43.782394 L 3439.76001 43.788696 C 3436.939941 44.865402 3434.280029 45.876404 3431.949951 46.714905 C 3428.389893 47.993103 3426.879883 48.668503 3426.429932 48.993591 C 3426.129883 49.0457 3425.800049 49.104904 3425.439941 49.170197 C 3419.639893 50.210999 3405.159912 52.812195 3381.02002 52.812195 C 3359.969971 52.812195 3338 58.741699 3322.149902 63.017998 C 3315.280029 64.871803 3309.560059 66.414902 3305.570068 67.029503 C 3295.629883 68.559799 3282.47998 60.872299 3266.929932 51.779205 L 3266.929932 51.777298 C 3261.820068 48.794098 3256.459961 45.659698 3250.870117 42.649994 C 3228.23999 30.465103 3147.129883 36.552597 3122.610107 38.585098 C 3098.090088 40.617493 2945.300049 58.899704 2945.300049 58.899704 C 2945.300049 58.899704 2901.919922 54.834801 2852.879883 50.769897 C 2803.840088 46.705002 2720.840088 44.682404 2660.47998 52.802399 C 2600.120117 60.922302 2456.77002 99.518997 2456.77002 99.518997 C 2456.77002 99.518997 2424.699951 97.486603 2405.840088 97.486603 C 2387.97998 97.486603 2317.699951 110.232002 2310.27002 111.587997 C 2302.850098 110.232002 2232.570068 97.486603 2214.709961 97.486603 C 2195.850098 97.486603 2163.780029 99.518997 2163.780029 99.518997 C 2163.780029 99.518997 2020.430054 60.922302 1960.069946 52.802399 C 1899.709961 44.682404 1816.709961 46.705002 1767.670044 50.769897 C 1718.630005 54.834801 1675.25 58.899704 1675.25 58.899704 C 1675.25 58.899704 1522.459961 40.617493 1497.939941 38.585098 C 1473.420044 36.552597 1392.310059 30.465103 1369.680054 42.649994 C 1364.089966 45.659897 1358.72998 48.794403 1353.619995 51.777603 L 1353.619995 51.7789 C 1338.069946 60.872101 1324.920044 68.559799 1314.97998 67.029503 C 1310.97998 66.414902 1305.27002 64.871803 1298.400024 63.017998 C 1282.550049 58.741699 1260.579956 52.812195 1239.530029 52.812195 C 1215.390015 52.812195 1200.900024 50.210999 1195.109985 49.170303 C 1194.73999 49.104904 1194.410034 49.045593 1194.119995 48.993591 C 1193.670044 48.668396 1192.160034 47.993103 1188.599976 46.714905 C 1186.26001 45.874695 1183.599976 44.861404 1180.77002 43.782303 C 1169.890015 39.640396 1156.469971 34.529999 1148.98999 34.529999 C 1145.199951 34.529999 1134.72998 30.931 1122.579956 26.752899 C 1104.449951 20.520004 1082.569946 12.998596 1073.540039 14.215393 C 1062.550049 15.695206 1040.569946 13.942795 1027.23999 12.880402 C 1022.26001 12.483505 1018.48999 12.182999 1016.949951 12.182999 L 1011.289978 12.182999 C 1010.190002 12.182999 1003.22998 11.841293 993.349976 11.356094 L 993.349976 11.356003 C 969.138 10.167603 927.390015 8.118073 911.315979 8.118073 C 888.677002 8.118073 850.958984 4.053177 850.958984 4.053177 L 839.643982 2.020737 C 839.643982 2.020737 800.028992 8.118073 788.715027 4.053177 C 777.400024 -0.011719 775.513 -0.011719 766.075989 -0.011719 C 757.01001 -0.011719 740.994019 1.864227 739.75 2.011566 C 738.505981 1.864227 722.489014 -0.011719 713.422974 -0.011719 C 703.986023 -0.011719 702.098999 -0.011719 690.783997 4.053177 C 679.469971 8.118073 639.85498 2.020737 639.85498 2.020737 L 628.539978 4.053177 C 628.539978 4.053177 590.822021 8.118073 568.184021 8.118073 C 552.109009 8.118073 510.361023 10.167603 486.152008 11.356003 C 476.266998 11.841293 469.306 12.182999 468.212006 12.182999 L 462.549988 12.182999 C 461.01001 12.182999 457.239014 12.483505 452.260986 12.880402 C 438.931 13.942795 416.945007 15.695206 405.959015 14.215393 C 396.924988 12.998596 375.049011 20.520004 356.920013 26.752899 C 344.768005 30.931 334.299988 34.529999 330.513 34.529999 C 323.026001 34.529999 309.606995 39.640396 298.730988 43.782303 C 295.897003 44.861404 293.235992 45.874695 290.89801 46.714905 C 287.339996 47.993103 285.833008 48.668396 285.380005 48.993591 C 285.084015 49.045593 284.755005 49.104904 284.390015 49.170303 C 278.595001 50.210999 264.109009 52.812195 239.968002 52.812195 C 218.916 52.812195 196.945007 58.741798 181.100998 63.018097 C 174.231995 64.871803 168.514999 66.414902 164.522003 67.029503 C 154.582001 68.559799 141.432007 60.872101 125.876999 51.778801 C 120.774002 48.795197 115.411003 45.660309 109.818001 42.649994 C 87.189003 30.465103 6.0811 36.552597 -18.444599 38.585098 C -42.961102 40.617493 -195.75 58.899704 -195.75 58.899704 C -195.75 58.899704 -239.130005 54.834801 -288.171997 50.769897 C -337.213989 46.705002 -420.209015 44.682404 -480.56601 52.802399 C -540.932007 60.922302 -684.283997 99.518997 -684.283997 99.518997 C -684.283997 99.518997 -716.349976 97.486603 -735.213989 97.486603 Z"/>
</svg>
