<svg width="3024" height="250" viewBox="0 0 3024 250" xmlns="http://www.w3.org/2000/svg" style="background-color: #FFFFFF">
    <path id="Pfad" fill="#EAEBEA" stroke="none" d="M -735.213989 97.486603 C -754.078003 97.486603 -831.411011 111.70401 -831.411011 111.70401 L -831.411011 111.713989 L -858 250 L 3881 250 L 3880.879883 2.020737 C 3880.879883 2.020737 3863.910156 -0.011719 3854.469727 -0.011719 C 3845.040039 -0.011719 3843.149902 -0.011719 3831.830078 4.053177 C 3820.52002 8.118073 3780.899902 2.020737 3780.899902 2.020737 L 3769.589844 4.053177 C 3769.589844 4.053177 3731.870117 8.118073 3709.22998 8.118073 C 3693.160156 8.118073 3651.410156 10.167603 3627.200195 11.356003 C 3617.320313 11.841293 3610.360352 12.182999 3609.259766 12.182999 L 3603.600098 12.182999 C 3602.060059 12.182999 3598.290039 12.483505 3593.310059 12.880295 C 3579.97998 13.942795 3557.990234 15.695206 3547.009766 14.215393 C 3537.97998 12.998596 3516.100098 20.520004 3497.969727 26.752808 C 3485.820313 30.930908 3475.350098 34.529999 3471.560059 34.529999 C 3464.080078 34.529999 3450.660156 39.640503 3439.780273 43.782394 L 3439.759766 43.788696 C 3436.939941 44.865402 3434.280273 45.876404 3431.950195 46.714905 C 3428.389648 47.993103 3426.879883 48.668503 3426.429688 48.993591 C 3426.129883 49.0457 3425.799805 49.104904 3425.439941 49.170197 C 3419.639648 50.210999 3405.160156 52.812195 3381.02002 52.812195 C 3359.969727 52.812195 3338 58.741699 3322.149902 63.018005 C 3315.280273 64.871796 3309.560059 66.414902 3305.570313 67.02951 C 3295.629883 68.559799 3282.47998 60.872299 3266.929688 51.779205 L 3266.929688 51.777298 C 3261.820313 48.794098 3256.459961 45.659698 3250.870117 42.649994 C 3228.23999 30.465103 3147.129883 36.552597 3122.610107 38.585098 C 3098.090088 40.617493 2945.300049 58.899704 2945.300049 58.899704 C 2945.300049 58.899704 2901.919922 54.834808 2852.879883 50.769897 C 2803.840088 46.705002 2720.840088 44.682404 2660.47998 52.802399 C 2600.120117 60.922302 2456.77002 99.518997 2456.77002 99.518997 C 2456.77002 99.518997 2424.699951 97.486603 2405.840088 97.486603 C 2387.97998 97.486603 2317.699951 110.231995 2310.27002 111.587997 C 2302.850098 110.231995 2232.570068 97.486603 2214.709961 97.486603 C 2195.850098 97.486603 2163.780029 99.518997 2163.780029 99.518997 C 2163.780029 99.518997 2020.430176 60.922302 1960.069824 52.802399 C 1899.709961 44.682404 1816.709961 46.705002 1767.669922 50.769897 C 1718.629883 54.834808 1675.25 58.899704 1675.25 58.899704 C 1675.25 58.899704 1522.459961 40.617493 1497.939941 38.585098 C 1473.419922 36.552597 1392.310059 30.465103 1369.680176 42.649994 C 1364.089844 45.659897 1358.72998 48.794403 1353.620117 51.777603 L 1353.620117 51.7789 C 1338.069824 60.872101 1324.919922 68.559799 1314.97998 67.02951 C 1310.97998 66.414902 1305.27002 64.871796 1298.399902 63.018005 C 1282.550049 58.741699 1260.580078 52.812195 1239.530029 52.812195 C 1215.390137 52.812195 1200.899902 50.210999 1195.109863 49.170303 C 1194.73999 49.104904 1194.410156 49.045593 1194.120117 48.993591 C 1193.669922 48.668396 1192.160156 47.993103 1188.599976 46.714905 C 1186.26001 45.874695 1183.599976 44.861404 1180.77002 43.782303 C 1169.890015 39.640396 1156.469971 34.529999 1148.98999 34.529999 C 1145.199951 34.529999 1134.72998 30.931 1122.579956 26.752899 C 1104.449951 20.520004 1082.569946 12.998596 1073.540039 14.215393 C 1062.550049 15.695206 1040.569946 13.942795 1027.23999 12.880402 C 1022.26001 12.483505 1018.48999 12.182999 1016.949951 12.182999 L 1011.290039 12.182999 C 1010.189941 12.182999 1003.22998 11.841293 993.349976 11.356094 L 993.349976 11.356003 C 969.137939 10.167603 927.390015 8.118073 911.315918 8.118073 C 888.677002 8.118073 850.958984 4.053177 850.958984 4.053177 L 839.644043 2.020737 C 839.644043 2.020737 800.029053 8.118073 788.715088 4.053177 C 777.400024 -0.011719 775.512939 -0.011719 766.075928 -0.011719 C 757.01001 -0.011719 740.994019 1.864227 739.75 2.011566 C 738.505981 1.864227 722.489014 -0.011719 713.422974 -0.011719 C 703.986084 -0.011719 702.098999 -0.011719 690.783936 4.053177 C 679.469971 8.118073 639.85498 2.020737 639.85498 2.020737 L 628.540039 4.053177 C 628.540039 4.053177 590.822021 8.118073 568.184082 8.118073 C 552.109009 8.118073 510.361084 10.167603 486.151978 11.356003 C 476.266968 11.841293 469.30603 12.182999 468.212036 12.182999 L 462.550049 12.182999 C 461.01001 12.182999 457.239014 12.483505 452.260986 12.880402 C 438.93103 13.942795 416.945068 15.695206 405.958984 14.215393 C 396.925049 12.998596 375.049072 20.520004 356.920044 26.752899 C 344.768066 30.931 334.300049 34.529999 330.512939 34.529999 C 323.026001 34.529999 309.606934 39.640396 298.730957 43.782303 C 295.896973 44.861404 293.235962 45.874695 290.897949 46.714905 C 287.339966 47.993103 285.833008 48.668396 285.380005 48.993591 C 285.083984 49.045593 284.755005 49.104904 284.390015 49.170303 C 278.594971 50.210999 264.109009 52.812195 239.968018 52.812195 C 218.916016 52.812195 196.945068 58.741791 181.100952 63.018097 C 174.231934 64.871796 168.515015 66.414902 164.521973 67.02951 C 154.582031 68.559799 141.432007 60.872101 125.877014 51.778809 C 120.773987 48.795197 115.411011 45.660309 109.817993 42.649994 C 87.189026 30.465103 6.081116 36.552597 -18.44458 38.585098 C -42.961121 40.617493 -195.75 58.899704 -195.75 58.899704 C -195.75 58.899704 -239.130005 54.834808 -288.171997 50.769897 C -337.213989 46.705002 -420.209015 44.682404 -480.56601 52.802399 C -540.932007 60.922302 -684.283997 99.518997 -684.283997 99.518997 C -684.283997 99.518997 -716.349976 97.486603 -735.213989 97.486603 Z"/>
</svg>
