<svg width="3025" height="127" viewBox="0 0 3025 127" fill="none" xmlns="http://www.w3.org/2000/svg" style="background-color:#FFFFFF">
    <path d="M-701.639 98.5066C-720.502 98.5066 -797.831 112.81 -797.831 112.81V112.82V126.416H3914.17V2.46081C3914.17 2.46081 3897.2 0.416016 3887.77 0.416016C3878.33 0.416016 3876.44 0.416016 3865.13 4.5056C3853.82 8.59519 3814.2 2.46081 3814.2 2.46081L3802.89 4.5056C3802.89 4.5056 3765.17 8.59519 3742.54 8.59519C3726.46 8.59519 3684.72 10.6571 3660.51 11.8528C3650.63 12.341 3643.67 12.6848 3642.57 12.6848H3636.91C3635.37 12.6848 3631.6 12.9872 3626.62 13.3864C3613.29 14.4553 3591.31 16.2183 3580.32 14.7296C3571.29 13.5054 3549.41 21.0724 3531.29 27.3431C3519.13 31.5466 3508.67 35.1676 3504.88 35.1676C3497.39 35.1676 3483.98 40.309 3473.1 44.4761L3473.08 44.4824C3470.26 45.5657 3467.6 46.5828 3465.27 47.4264C3461.71 48.7125 3460.2 49.3919 3459.75 49.719C3459.45 49.7714 3459.13 49.8309 3458.76 49.8967C3452.97 50.9438 3438.48 53.5608 3414.34 53.5608C3393.29 53.5608 3371.32 59.5263 3355.48 63.8286C3348.61 65.6936 3342.89 67.2461 3338.9 67.8644C3328.96 69.404 3315.81 61.6698 3300.26 52.5215L3300.26 52.5195C3295.15 49.5183 3289.79 46.3649 3284.2 43.3368C3261.57 31.078 3180.47 37.2025 3155.94 39.2472C3131.43 41.292 2978.65 59.6853 2978.65 59.6853C2978.65 59.6853 2935.27 55.5957 2886.23 51.5061C2837.19 47.4165 2754.2 45.3816 2693.85 53.5509C2633.49 61.7201 2490.15 100.551 2490.15 100.551C2490.15 100.551 2458.08 98.5066 2439.22 98.5066C2421.36 98.5066 2351.09 111.329 2343.66 112.693C2336.24 111.329 2265.97 98.5066 2248.11 98.5066C2229.24 98.5066 2197.18 100.551 2197.18 100.551C2197.18 100.551 2053.84 61.7201 1993.48 53.5509C1933.12 45.3816 1850.13 47.4165 1801.09 51.5061C1752.05 55.5957 1708.68 59.6853 1708.68 59.6853C1708.68 59.6853 1555.9 41.292 1531.38 39.2472C1506.86 37.2025 1425.75 31.078 1403.13 43.3368C1397.54 46.365 1392.17 49.5185 1387.07 52.5199L1387.07 52.5212C1371.52 61.6697 1358.37 69.404 1348.43 67.8644C1344.43 67.2461 1338.72 65.6936 1331.85 63.8286C1316.01 59.5263 1294.04 53.5608 1272.99 53.5608C1248.85 53.5608 1234.36 50.9438 1228.57 49.8967C1228.2 49.8309 1227.87 49.7713 1227.58 49.7189C1227.12 49.3918 1225.62 48.7124 1222.06 47.4264C1219.72 46.5812 1217.06 45.5617 1214.23 44.476C1203.35 40.3089 1189.93 35.1676 1182.45 35.1676C1178.66 35.1676 1168.19 31.5466 1156.04 27.3432C1137.91 21.0725 1116.04 13.5054 1107 14.7296C1096.02 16.2183 1074.03 14.4553 1060.71 13.3864C1055.73 12.9872 1051.96 12.6848 1050.42 12.6848H1044.76C1043.66 12.6848 1036.7 12.341 1026.82 11.8529L1026.82 11.8528C1002.61 10.6571 960.863 8.59519 944.79 8.59519C922.153 8.59519 884.437 4.5056 884.437 4.5056L873.123 2.46081C873.123 2.46081 833.51 8.59519 822.196 4.5056C810.882 0.416016 808.995 0.416016 799.559 0.416016C790.494 0.416016 774.478 2.30335 773.234 2.4516C771.99 2.30335 755.974 0.416016 746.909 0.416016C737.473 0.416016 735.586 0.416016 724.272 4.5056C712.958 8.59519 673.346 2.46081 673.346 2.46081L662.032 4.5056C662.032 4.5056 624.315 8.59519 601.679 8.59519C585.605 8.59519 543.859 10.6571 519.652 11.8528C509.768 12.341 502.807 12.6848 501.713 12.6848H496.051C494.512 12.6848 490.741 12.9872 485.763 13.3864C472.434 14.4553 450.449 16.2183 439.463 14.7296C430.43 13.5054 408.555 21.0725 390.428 27.3432C378.276 31.5466 367.809 35.1676 364.022 35.1676C356.536 35.1676 343.118 40.3089 332.242 44.476C329.409 45.5617 326.748 46.5812 324.41 47.4264C320.852 48.7124 319.345 49.3918 318.892 49.719C318.597 49.7713 318.267 49.8309 317.903 49.8967C312.107 50.9438 297.623 53.5608 273.483 53.5608C252.432 53.5608 230.463 59.5264 214.619 63.8286C207.751 65.6936 202.034 67.2461 198.042 67.8644C188.102 69.4041 174.953 61.6696 159.399 52.5211C154.296 49.5194 148.934 46.3654 143.341 43.3368C120.713 31.078 39.6103 37.2025 15.0861 39.2472C-9.42895 41.292 -162.208 59.6853 -162.208 59.6853C-162.208 59.6853 -205.586 55.5957 -254.625 51.5061C-303.664 47.4165 -386.654 45.3816 -447.007 53.5509C-507.37 61.7201 -650.713 100.551 -650.713 100.551C-650.713 100.551 -682.777 98.5066 -701.639 98.5066Z" fill="#EAEBEA"/>
</svg>
