<svg width="3024" height="517" viewBox="0 0 3024 517" fill="none" xmlns="http://www.w3.org/2000/svg">
    <path d="M3131.4 199.019C3263.07 191.506 3552.27 78.8077 3603.41 46.8765L3678.65 26.2151L3698.14 0H3024L2040.44 0.00640762L-1080.9 0C-1091.88 236.041 -1085.14 517.958 -970.397 516.456C-859.777 515.007 -680.62 461.042 -573.17 428.676C-541.307 419.078 -515.75 411.38 -500.155 407.514C-445.607 393.99 -333.219 317.981 -283.843 281.667C-240.738 257.249 -129.429 222.377 2.23938 214.864C241.914 201.188 479.767 0.00319672 665.995 46.8797C852.224 93.7561 1006.33 191.509 1138 199.022C1269.67 206.536 1388.8 257.25 1431.9 281.668C1481.28 317.982 1593.66 393.991 1648.21 407.514C1661.82 410.888 1684.63 417.603 1713.57 426.121L1713.58 426.124C1829.68 460.3 2044.4 523.506 2159 516.457C2159.74 516.411 2160.49 516.36 2161.22 516.304C2272.2 513.149 2443.36 460.896 2547.6 429.076C2579.73 419.268 2605.5 411.401 2621.19 407.511C2675.73 393.988 2788.12 317.979 2837.5 281.665C2880.6 257.247 3001.8 207.773 3131.4 199.019Z" fill="#687E5E"/>
</svg>
