<svg width="3024" height="518" viewBox="0 0 3024 518" fill="none" xmlns="http://www.w3.org/2000/svg">
    <path d="M3131.4 199.053C3263.07 191.538 3552.27 78.8209 3603.41 46.8843L3678.65 26.2195L3698.04 0.00640869H2040.44L-1080.9 0C-1091.88 236.08 -1085.14 518.045 -970.397 516.542C-859.777 515.093 -680.62 461.119 -573.17 428.748C-541.307 419.148 -515.75 411.449 -500.155 407.582C-445.607 394.056 -333.219 318.034 -283.843 281.714C-240.738 257.292 -121.61 206.569 10.0583 199.055C141.726 191.54 430.925 78.8232 482.064 46.8866L593.605 27.0051L665.995 46.8875C717.134 78.8241 1006.33 191.541 1138 199.056C1269.67 206.57 1388.8 257.293 1431.9 281.715C1481.28 318.035 1593.66 394.057 1648.21 407.583C1661.82 410.956 1684.63 417.672 1713.57 426.193L1713.58 426.195C1829.68 460.377 2044.4 523.594 2159 516.543C2159.74 516.497 2160.49 516.446 2161.22 516.39C2272.2 513.234 2443.36 460.973 2547.6 429.148C2579.73 419.338 2605.5 411.47 2621.19 407.58C2675.73 394.053 2788.12 318.032 2837.5 281.712C2880.6 257.29 2999.73 206.567 3131.4 199.053Z" fill="#687E5E"/>
</svg>
