<svg width="3025" height="703" viewBox="0 0 3025 703" fill="none" xmlns="http://www.w3.org/2000/svg">
    <path d="M414.5 522.839C380.289 516.276 337.5 492.82 308 477.309C255.123 449.509 0.5 422.274 0.5 422.274V702.443H4284.8C4284.8 702.443 4153.25 658.595 4136.7 655.262C4130.75 654.066 4113.18 649.597 4091.06 643.96L4090.9 643.919L4090.84 643.907C4051.48 633.883 3997.79 620.21 3969.25 614.736C3935.05 608.175 3882.14 592.39 3846.93 581.881L3846.91 581.875C3836.15 578.666 3827.05 575.949 3820.64 574.139C3793.23 566.404 3708.07 567.946 3690.11 569.607C3672.16 571.268 3592.36 582.395 3573.7 586.548C3563.96 588.715 3526.92 586.237 3491.69 583.88C3459.43 581.722 3428.69 579.666 3421.84 581.375C3396.34 587.728 3382.01 582.842 3351.11 572.306C3332.91 566.103 3308.97 557.941 3273.62 548.963C3272.56 548.693 3271.31 548.424 3269.88 548.134C3268.47 547.849 3266.89 547.546 3265.11 547.208C3245.04 543.387 3200.71 534.946 3120.35 496.29C3084.32 478.959 3014.87 424.863 2975 367.797C2962.26 349.56 2945.17 334.517 2926.04 317.682L2926.03 317.67C2913.52 306.655 2900.13 294.87 2886.51 280.92C2883.1 277.429 2879.83 274.054 2876.63 270.753C2846.3 239.493 2822.51 214.977 2755.6 163.222C2610.58 51.0909 2419.31 -63.6912 2242.31 42.7145C2237.56 45.5718 2229.64 50.1705 2219.54 56.0259C2175.86 81.3705 2091.62 130.254 2048.98 163.222C1982.06 214.977 1958.28 239.493 1927.95 270.753C1924.75 274.054 1921.48 277.429 1918.07 280.92C1904.45 294.87 1891.06 306.655 1878.55 317.67L1878.54 317.682C1859.41 334.517 1842.32 349.56 1829.58 367.797C1789.71 424.863 1720.26 478.959 1684.23 496.29C1603.87 534.946 1559.54 543.387 1539.47 547.208L1539.44 547.214C1535.86 547.896 1533.06 548.429 1530.96 548.963C1495.61 557.941 1471.67 566.103 1453.47 572.306C1422.57 582.842 1408.24 587.728 1382.74 581.375C1375.89 579.666 1345.16 581.722 1312.89 583.88C1277.66 586.237 1240.62 588.715 1230.88 586.548C1212.22 582.395 1132.42 571.268 1114.47 569.607C1096.51 567.946 1011.35 566.404 983.94 574.139C977.527 575.949 968.425 578.666 957.671 581.875L957.657 581.881C922.446 592.386 869.536 608.173 835.329 614.736C586.973 662.376 650.663 568.14 414.5 522.839Z" fill="#687E5E"/>
</svg>
