<svg width="3024" height="751" viewBox="0 0 3024 751" fill="none" xmlns="http://www.w3.org/2000/svg">
    <path d="M529.54 747.07C498.024 736.627 405.641 706.164 391.95 703.41C385.981 702.213 368.349 697.727 346.146 692.076C306.78 682.057 253.048 668.383 224.5 662.91C190.289 656.352 137.371 640.57 102.16 630.07C91.4053 626.863 82.3027 624.148 75.8896 622.34C48.48 614.609 -36.6802 616.15 -54.6401 617.811C-72.5903 619.471 -152.39 630.59 -171.05 634.74C-180.79 636.906 -217.834 634.43 -253.062 632.074C-285.325 629.918 -316.065 627.863 -322.91 629.57C-348.406 635.92 -362.74 631.037 -393.642 620.51C-411.838 614.311 -435.78 606.152 -471.13 597.18C-473.235 596.645 -476.05 596.109 -479.643 595.426C-499.71 591.607 -544.04 583.172 -624.4 544.541C-660.43 527.221 -729.88 473.16 -769.75 416.131C-782.495 397.902 -799.585 382.869 -818.72 366.037C-831.234 355.029 -844.622 343.252 -858.24 329.311C-861.646 325.822 -864.921 322.449 -868.124 319.15C-898.452 287.91 -922.235 263.41 -989.15 211.689C-1031.79 178.742 -1116.04 129.889 -1159.72 104.561C-1169.81 98.709 -1177.73 94.1133 -1182.48 91.2598C-1195.42 83.4883 -1232.76 62.502 -1268.31 42.5215C-1302.28 23.4277 -1334.62 5.25391 -1342.46 0.410156V750.561H4284.05C4284.05 750.561 4152.5 706.74 4135.95 703.41C4130 702.215 4112.43 697.748 4090.31 692.115L4090.15 692.074L4090.09 692.062C4050.73 682.045 3997.04 668.381 3968.5 662.91C3934.3 656.354 3881.39 640.578 3846.18 630.076L3846.16 630.07C3835.4 626.863 3826.3 624.148 3819.89 622.34C3792.48 614.609 3707.32 616.15 3689.36 617.811C3671.41 619.471 3591.61 630.59 3572.95 634.74C3563.21 636.906 3526.17 634.43 3490.94 632.074C3458.68 629.918 3427.94 627.863 3421.09 629.57C3395.59 635.92 3381.26 631.037 3350.36 620.508C3332.16 614.309 3308.22 606.152 3272.87 597.18C3271.81 596.91 3270.56 596.641 3269.13 596.352C3267.72 596.066 3266.14 595.764 3264.36 595.426C3244.29 591.607 3199.96 583.172 3119.6 544.541C3083.57 527.221 3014.12 473.16 2974.25 416.131C2961.51 397.906 2944.42 382.873 2925.29 366.049L2925.28 366.037C2912.77 355.029 2899.38 343.252 2885.76 329.311C2882.35 325.822 2879.08 322.449 2875.88 319.15C2845.55 287.91 2821.76 263.41 2754.85 211.689C2712.21 178.742 2627.97 129.891 2584.28 104.562C2574.19 98.7109 2566.27 94.1152 2561.52 91.2598C2548.59 83.4902 2511.27 62.5156 2475.73 42.543L2475.7 42.5254L2475.43 42.3789C2441.55 23.3359 2409.36 5.24219 2401.54 0.410156C2393.72 5.24219 2361.53 23.3359 2327.65 42.3789L2327.38 42.5254L2327.35 42.543C2291.81 62.5156 2254.49 83.4902 2241.56 91.2598C2236.81 94.1152 2228.89 98.7109 2218.79 104.562C2175.11 129.891 2090.87 178.742 2048.23 211.689C1981.31 263.41 1957.53 287.91 1927.2 319.15C1924 322.449 1920.73 325.822 1917.32 329.311C1903.7 343.252 1890.31 355.029 1877.8 366.037L1877.79 366.049C1858.66 382.873 1841.57 397.906 1828.83 416.131C1788.96 473.16 1719.51 527.221 1683.48 544.541C1603.12 583.172 1558.79 591.607 1538.72 595.426L1538.69 595.432C1535.11 596.113 1532.31 596.646 1530.21 597.18C1494.86 606.152 1470.92 614.309 1452.72 620.508C1421.82 631.037 1407.49 635.92 1381.99 629.57C1375.14 627.863 1344.4 629.918 1312.14 632.074C1276.91 634.43 1239.87 636.906 1230.13 634.74C1211.47 630.59 1131.67 619.471 1113.72 617.811C1095.76 616.15 1010.6 614.609 983.19 622.34C976.777 624.148 967.675 626.863 956.921 630.07L956.907 630.076C921.696 640.574 868.786 656.352 834.58 662.91C806.031 668.383 752.299 682.057 712.933 692.076C690.73 697.727 673.098 702.213 667.13 703.41C653.439 706.164 561.056 736.627 529.54 747.07Z" fill="#687E5E"/>
</svg>
