<svg width="3025" height="518" viewBox="0 0 3025 518" fill="none" xmlns="http://www.w3.org/2000/svg">
    <path d="M3132.15 199.447C3263.82 191.934 3553.02 79.2354 3604.16 47.3042L3679.4 26.6428L3698.79 0.434142H2041.19L-1080.15 0.427734C-1091.13 236.468 -1084.39 518.386 -969.647 516.883C-859.027 515.434 -679.87 461.47 -572.42 429.104C-540.557 419.506 -515 411.808 -499.405 407.941C-444.857 394.418 -332.469 318.409 -283.093 282.095C-239.988 257.677 -128.668 222.477 3 214.964C242.674 201.288 480.517 0.430938 666.745 47.3074C852.974 94.1839 1007.08 191.937 1138.75 199.45C1270.42 206.963 1389.55 257.678 1432.65 282.096C1482.03 318.409 1594.41 394.418 1648.96 407.942C1662.57 411.315 1685.38 418.03 1714.32 426.549L1714.33 426.551C1830.43 460.728 2045.15 523.934 2159.75 516.884C2160.49 516.838 2161.24 516.787 2161.97 516.731C2272.95 513.576 2444.11 461.324 2548.35 429.504C2580.48 419.695 2606.25 411.829 2621.94 407.939C2676.48 394.415 2788.87 318.406 2838.25 282.092C2881.35 257.674 3000.48 206.96 3132.15 199.447Z" fill="#687E5E"/>
</svg>
