<svg width="3024" height="703" viewBox="0 0 3024 703" fill="none" xmlns="http://www.w3.org/2000/svg">
    <path d="M413.75 522.411C379.539 515.848 181.521 533.942 150.25 522.411C78.25 495.862 -0.25 421.846 -0.25 421.846V702.016H4284.05C4284.05 702.016 4152.5 658.167 4135.95 654.835C4130 653.639 4112.43 649.169 4090.31 643.532L4090.15 643.491L4090.09 643.48C4050.73 633.455 3997.04 619.783 3968.5 614.308C3934.3 607.747 3881.39 591.962 3846.18 581.453L3846.16 581.447C3835.4 578.238 3826.3 575.521 3819.89 573.712C3792.48 565.976 3707.32 567.518 3689.36 569.179C3671.41 570.841 3591.61 581.967 3572.95 586.12C3563.21 588.288 3526.17 585.809 3490.94 583.452C3458.68 581.295 3427.94 579.239 3421.09 580.947C3395.59 587.301 3381.26 582.415 3350.36 571.878C3332.16 565.675 3308.22 557.514 3272.87 548.535C3271.81 548.265 3270.56 547.996 3269.13 547.707C3267.72 547.421 3266.14 547.118 3264.36 546.78C3244.29 542.959 3199.96 534.518 3119.6 495.862C3083.57 478.531 3018.12 423 2974.25 367.369C2961.51 349.132 2944.42 334.089 2925.29 317.254L2925.28 317.243C2912.77 306.228 2899.38 294.443 2885.76 280.492C2882.35 277.002 2879.08 273.626 2875.88 270.325C2845.55 239.065 2821.76 214.549 2754.85 162.795C2609.83 50.6632 2418.56 -64.1189 2241.56 42.2868C2236.81 45.1441 2228.89 49.7428 2218.79 55.5981C2175.11 80.9427 2090.87 129.826 2048.23 162.795C1981.31 214.549 1957.53 239.065 1927.2 270.325C1924 273.626 1920.73 277.002 1917.32 280.492C1903.7 294.443 1890.31 306.228 1877.8 317.243L1877.79 317.254C1858.66 334.089 1841.57 349.132 1828.83 367.369C1788.96 424.435 1719.51 478.531 1683.48 495.862C1603.12 534.518 1558.79 542.959 1538.72 546.78L1538.69 546.786C1535.11 547.468 1532.31 548.002 1530.21 548.535C1494.86 557.514 1470.92 565.675 1452.72 571.878C1421.82 582.415 1407.49 587.301 1381.99 580.947C1375.14 579.239 1344.41 581.295 1312.14 583.452C1276.91 585.809 1239.87 588.288 1230.13 586.12C1211.47 581.967 1131.67 570.841 1113.72 569.179C1095.76 567.518 1010.6 565.976 983.19 573.712C976.777 575.521 967.675 578.238 956.921 581.447L956.907 581.453C921.696 591.958 868.786 607.745 834.579 614.308C586.223 661.948 649.913 567.713 413.75 522.411Z" fill="#687E5E"/>
</svg>
