<svg width="3024" height="757" viewBox="0 0 3024 757" fill="none" xmlns="http://www.w3.org/2000/svg">
    <path d="M-1.75 31.0107V659.819C117.583 596.519 395.85 477.514 538.25 519.092C716.25 571.064 823.25 657.018 957.25 657.018C957.25 657.018 1300.9 676.323 1486.25 693.314C1579.21 701.836 1822.21 777.349 2330.25 751.305C2838.29 725.26 3026.29 658.112 3026.29 658.112L3024.03 30.9951C2680.03 45.0616 2538.25 -0.102279 2154.06 99.7544C2033.25 112.309 2024.48 89.6115 1979.25 94.319C1915.5 100.955 1913.15 113.117 1879.18 121.543C1846.38 129.668 1819.45 130.258 1796.28 140.223C1752.46 159.073 1692.48 165.529 1665.23 162.631C1593.57 155.015 1566.25 140.992 1556.9 138.044C1492.56 117.755 1478.78 123.961 1458.81 103.472C776.25 -72.5614 668.25 31.0099 -1.75 31.0107Z" fill="#EAEBEA"/>
</svg>
