<svg width="3025" height="815" viewBox="0 0 3025 815" fill="none" xmlns="http://www.w3.org/2000/svg">
    <path d="M1016.22 45.3218C1005.38 41.2933 912.89 19.3914 912.89 19.3914C826.223 4.06372 614.2 -14.7945 451 21.9918C287.8 58.7782 80.3333 123.288 -1 187.931V813.698C118.333 750.389 396.6 634.165 539 675.75C717 727.73 824 813.698 958 813.698C958 813.698 1372.3 760.718 1557.65 777.712C1650.61 786.235 1857 828.693 2365.04 802.644C2873.09 776.595 3027 814.698 3027 814.698V187.931C2358 52.8224 2539 156.471 2154.81 256.344C2034 268.901 2025.23 246.199 1980 250.907C1916.25 257.545 1913.9 269.709 1879.93 278.135C1847.13 286.262 1820.2 286.852 1797.03 296.819C1753.21 315.672 1693.23 322.129 1665.98 319.23C1594.32 311.613 1567 297.588 1557.65 294.639C1493.31 274.347 1479.53 280.555 1459.56 260.062C1452.5 252.815 1378.55 217.458 1369.17 208.311C1359.79 199.165 1317.28 163.918 1307.42 156.471C1297.55 149.033 1248.47 117.425 1229.7 112.047C1210.93 106.669 1157.56 93.214 1128.44 82.0981C1099.32 70.9822 1027.06 49.3503 1016.22 45.3218Z" fill="#D9D9D9"/>
</svg>
