<svg width="3024" height="652" viewBox="0 0 3024 652" fill="none" xmlns="http://www.w3.org/2000/svg">
    <path d="M921 0.539062L920.5 0.657623L920 0.539062V0.776291C909.981 3.15475 827.846 22.6958 817.67 26.4791C813.768 27.9297 801.908 31.6621 786.966 36.3643C760.398 44.725 724.088 56.1518 705.45 63.2691C683.123 71.7953 646.538 81.6971 622.225 88.2777C614.829 90.2796 608.568 91.9742 604.19 93.2291C585.42 98.6091 536.34 130.229 526.47 137.669C516.61 145.119 474.1 180.379 464.72 189.529C459.825 194.304 437.347 206.219 415.966 217.552L415.965 217.552C396.375 227.937 377.706 237.832 374.33 241.299C361.763 254.199 351.648 256.523 329.842 261.531C316.996 264.481 300.092 268.363 276.24 275.889C274.821 276.337 272.989 277.039 270.65 277.936C257.578 282.95 228.696 294.025 167.91 300.489C140.66 303.389 80.6802 296.929 36.8602 278.069C22.8505 272.041 7.46619 269.442 -9.75919 266.532L-9.76111 266.531C-21.0235 264.629 -33.073 262.593 -46.0398 259.379C-49.2814 258.575 -52.4051 257.79 -55.4592 257.023C-84.4106 249.749 -107.113 244.045 -164.78 238.039C-201.52 234.213 -268.243 236.128 -302.845 237.121C-310.84 237.35 -317.121 237.53 -320.92 237.579C-331.294 237.712 -360.772 238.956 -388.775 240.136C-415.378 241.258 -440.651 242.324 -446.95 242.329C-459.87 242.339 -459 326 -459 326H3642V0.539062C3642 0.539062 3549.51 22.4491 3538.67 26.4791C3534.77 27.9297 3522.91 31.6623 3507.96 36.3646C3481.4 44.7254 3445.09 56.1519 3426.45 63.2691C3404.12 71.7953 3367.54 81.6971 3343.23 88.2777C3335.83 90.2796 3329.57 91.9742 3325.19 93.2291C3306.42 98.6091 3257.34 130.229 3247.47 137.669C3237.61 145.119 3195.1 180.379 3185.72 189.529C3180.83 194.304 3158.35 206.219 3136.97 217.552C3117.37 227.937 3098.71 237.832 3095.33 241.299C3082.76 254.199 3072.65 256.523 3050.84 261.531C3038 264.481 3021.09 268.363 2997.24 275.889C2995.82 276.337 2993.99 277.04 2991.65 277.936C2978.58 282.95 2949.7 294.025 2888.91 300.489C2861.66 303.389 2801.68 296.929 2757.86 278.069C2743.85 272.041 2728.47 269.442 2711.24 266.532C2699.98 264.629 2687.93 262.593 2674.96 259.379C2671.72 258.575 2668.59 257.79 2665.54 257.023C2636.59 249.749 2613.89 244.045 2556.22 238.039C2519.48 234.213 2452.76 236.128 2418.16 237.121C2410.16 237.35 2403.88 237.53 2400.08 237.579C2389.71 237.712 2360.23 238.956 2332.22 240.137C2311.62 241.005 2291.81 241.841 2281 242.176C2270.19 241.841 2250.39 241.006 2229.78 240.137L2229.78 240.137C2201.77 238.956 2172.29 237.712 2161.92 237.579C2158.12 237.53 2151.84 237.35 2143.84 237.121C2109.24 236.128 2042.52 234.213 2005.78 238.039C1948.11 244.045 1925.41 249.749 1896.46 257.023C1893.41 257.79 1890.28 258.575 1887.04 259.379C1874.07 262.593 1862.02 264.629 1850.76 266.532C1833.53 269.442 1818.15 272.041 1804.14 278.069C1760.32 296.929 1700.34 303.389 1673.09 300.489C1612.3 294.025 1583.42 282.95 1570.35 277.936C1568.01 277.039 1566.18 276.337 1564.76 275.889C1540.91 268.363 1524 264.481 1511.16 261.531C1489.35 256.523 1479.24 254.199 1466.67 241.299C1463.29 237.832 1444.63 227.937 1425.04 217.553L1425.03 217.552C1403.65 206.219 1381.17 194.304 1376.28 189.529C1366.9 180.379 1324.39 145.119 1314.53 137.669C1304.66 130.229 1255.58 98.6091 1236.81 93.2291C1232.43 91.9742 1226.17 90.2796 1218.77 88.2777C1194.46 81.6971 1157.88 71.7953 1135.55 63.2691C1116.91 56.1518 1080.6 44.725 1054.03 36.3643L1054.03 36.363C1039.09 31.6614 1027.23 27.9296 1023.33 26.4791C1013.15 22.6958 931.019 3.15475 921 0.776291V0.539062Z" fill="#C9CAC9"/>
    <path d="M924 651.461L923.5 651.342L923 651.461V651.224C912.981 648.845 830.846 629.304 820.67 625.521C816.768 624.07 804.908 620.338 789.966 615.636C763.398 607.275 727.088 595.848 708.45 588.731C686.123 580.205 649.538 570.303 625.225 563.722C617.829 561.72 611.568 560.026 607.19 558.771C588.42 553.391 539.34 521.771 529.47 514.331C519.61 506.881 477.1 471.621 467.72 462.471C462.825 457.696 440.347 445.781 418.966 434.448L418.965 434.448C399.375 424.063 380.706 414.168 377.33 410.701C364.763 397.801 354.648 395.477 332.842 390.469C319.996 387.519 303.092 383.637 279.24 376.111C277.821 375.663 275.989 374.961 273.65 374.064C260.578 369.05 231.696 357.975 170.91 351.511C143.66 348.611 83.6802 355.071 39.8602 373.931C25.8505 379.959 10.4662 382.558 -6.75919 385.468L-6.76111 385.469C-18.0235 387.371 -30.073 389.407 -43.0398 392.621C-46.2814 393.425 -49.4051 394.21 -52.4592 394.977C-81.4106 402.251 -104.113 407.955 -161.78 413.961C-198.52 417.787 -265.243 415.872 -299.845 414.879C-307.84 414.65 -314.121 414.47 -317.92 414.421C-328.294 414.288 -357.772 413.044 -385.775 411.864C-412.378 410.742 -437.651 409.676 -443.95 409.671C-456.87 409.661 -456 326 -456 326H3645V651.461C3645 651.461 3552.51 629.551 3541.67 625.521C3537.77 624.07 3525.91 620.338 3510.96 615.635C3484.4 607.275 3448.09 595.848 3429.45 588.731C3407.12 580.205 3370.54 570.303 3346.23 563.722C3338.83 561.72 3332.57 560.026 3328.19 558.771C3309.42 553.391 3260.34 521.771 3250.47 514.331C3240.61 506.881 3198.1 471.621 3188.72 462.471C3183.83 457.696 3161.35 445.781 3139.97 434.448C3120.37 424.063 3101.71 414.168 3098.33 410.701C3085.76 397.801 3075.65 395.477 3053.84 390.469C3041 387.519 3024.09 383.637 3000.24 376.111C2998.82 375.663 2996.99 374.96 2994.65 374.064C2981.58 369.05 2952.7 357.975 2891.91 351.511C2864.66 348.611 2804.68 355.071 2760.86 373.931C2746.85 379.959 2731.47 382.558 2714.24 385.468C2702.98 387.371 2690.93 389.407 2677.96 392.621C2674.72 393.425 2671.59 394.21 2668.54 394.977C2639.59 402.251 2616.89 407.955 2559.22 413.961C2522.48 417.787 2455.76 415.872 2421.16 414.879C2413.16 414.65 2406.88 414.47 2403.08 414.421C2392.71 414.288 2363.23 413.044 2335.22 411.863C2314.62 410.995 2294.81 410.159 2284 409.824C2273.19 410.159 2253.39 410.994 2232.78 411.863L2232.78 411.863C2204.77 413.044 2175.29 414.288 2164.92 414.421C2161.12 414.47 2154.84 414.65 2146.84 414.879C2112.24 415.872 2045.52 417.787 2008.78 413.961C1951.11 407.955 1928.41 402.251 1899.46 394.977C1896.41 394.21 1893.28 393.425 1890.04 392.621C1877.07 389.407 1865.02 387.371 1853.76 385.468C1836.53 382.558 1821.15 379.959 1807.14 373.931C1763.32 355.071 1703.34 348.611 1676.09 351.511C1615.3 357.975 1586.42 369.05 1573.35 374.064C1571.01 374.961 1569.18 375.663 1567.76 376.111C1543.91 383.637 1527 387.519 1514.16 390.469C1492.35 395.477 1482.24 397.801 1469.67 410.701C1466.29 414.168 1447.63 424.063 1428.04 434.447L1428.03 434.448C1406.65 445.781 1384.17 457.696 1379.28 462.471C1369.9 471.621 1327.39 506.881 1317.53 514.331C1307.66 521.771 1258.58 553.391 1239.81 558.771C1235.43 560.026 1229.17 561.72 1221.77 563.722C1197.46 570.303 1160.88 580.205 1138.55 588.731C1119.91 595.848 1083.6 607.275 1057.03 615.636L1057.03 615.637C1042.09 620.339 1030.23 624.07 1026.33 625.521C1016.15 629.304 934.019 648.845 924 651.224V651.461Z" fill="#C9CAC9"/>
</svg>
