<svg width="3025" height="701" viewBox="0 0 3025 701" fill="none" xmlns="http://www.w3.org/2000/svg">
    <path d="M1466.59 346.753C1436.7 323.204 1267.64 240.086 1190.67 234.545C1113.7 229.004 1044.07 191.601 1018.87 173.592C990.005 146.81 924.307 90.752 892.42 80.7779C883.303 77.9264 868.364 72.2487 849.738 65.1703C786.926 41.2999 682.198 1.49956 617.533 0.431108C616.62 0.41603 615.72 0.465554 614.83 0.578363C613.941 0.465554 613.04 0.41603 612.128 0.431108C547.463 1.49956 442.734 41.2998 379.923 65.1702C361.297 72.2486 346.357 77.9264 337.241 80.7779C305.354 90.752 239.656 146.81 210.793 173.592C185.595 191.601 115.957 229.004 38.9886 234.545C-37.9797 240.086 -207.035 323.204 -236.929 346.753L-280.911 361.992L-292.25 382.117L3 700.428C3 700.428 95 636.481 1005 668.455C1915 700.428 2037 635 2479 646C2921 657 3026 699.429 3026 699.429L3311.07 382.117L3299.73 361.992L3255.75 346.753C3225.86 323.204 3056.8 240.086 2979.83 234.545C2535.43 202.551 2308.44 200.04 1829.15 234.545C1752.18 240.086 1583.13 323.204 1553.23 346.753C1536.75 357.583 1522.94 361.946 1509.91 361.763C1496.2 361.569 1479.21 356.696 1466.59 346.753Z" fill="#C9CAC9"/>
</svg>