<svg width="3025" height="645" viewBox="0 0 3025 645" fill="none" xmlns="http://www.w3.org/2000/svg">
    <path d="M183.159 393.717C312.956 403.034 598.046 542.79 648.458 582.388C648.458 582.388 676.263 607.813 720.882 607.407C765.5 607 753.609 600.776 793.305 582.388C833 564 1128.81 403.034 1258.6 393.717C1388.4 384.4 1505.84 321.509 1548.33 291.229C1597 246.196 1707.79 151.938 1761.57 135.167C1776.94 130.373 1802.14 120.826 1833.55 108.924C1939.47 68.7877 2116.08 1.86613 2225.13 0.0695992C2226.05 0.0543679 2226.97 0.0783433 2227.88 0.141046C2228.79 0.0783433 2229.71 0.0543679 2230.63 0.0695992C2339.68 1.86613 2516.29 68.7877 2622.22 108.924C2653.63 120.826 2678.82 130.373 2694.2 135.167C2747.97 151.938 2858.76 246.196 2907.43 291.229C2949.93 321.509 3067.36 384.4 3197.16 393.717C3326.96 403.034 3612.05 542.79 3662.46 582.388L3736.63 608.01L3755.75 644.062L-892.303 644.059C-903.119 351.347 -896.475 -1.79382 -783.366 0.0695992C-674.317 1.86613 -497.706 68.7877 -391.783 108.924C-360.372 120.826 -335.178 130.373 -319.805 135.167C-266.032 151.938 -155.241 246.196 -106.567 291.229C-64.0736 321.509 53.3619 384.4 183.159 393.717Z" fill="#687E5E"/>
</svg>
