<svg width="3024" height="758" viewBox="0 0 3024 758" fill="none" xmlns="http://www.w3.org/2000/svg">
    <path d="M-234.34 410.774C-204.446 434.362 -35.3904 517.613 41.5779 523.163C118.546 528.713 188.184 566.177 213.382 584.214C242.245 611.04 307.943 667.188 339.83 677.178C348.946 680.034 363.886 685.721 382.512 692.811C445.323 716.72 550.052 756.584 614.717 757.655C615.629 757.67 616.53 757.62 617.42 757.507C618.309 757.62 619.21 757.67 620.122 757.655C684.787 756.584 789.516 716.72 852.327 692.811L852.328 692.811L852.335 692.808C870.957 685.72 885.894 680.034 895.009 677.178C926.896 667.188 992.594 611.04 1021.46 584.214C1046.66 566.177 1116.29 528.713 1193.26 523.163C1270.23 517.613 1439.28 434.362 1469.18 410.774L1512.5 395.741L1555.82 410.774C1585.71 434.362 1754.77 517.613 1831.74 523.163C1908.71 528.713 1978.34 566.177 2003.54 584.214C2032.41 611.04 2098.1 667.188 2129.99 677.178C2139.11 680.034 2154.04 685.72 2172.67 692.809L2172.67 692.811C2235.48 716.72 2340.21 756.584 2404.88 757.655C2405.62 757.667 2406.35 757.636 2407.08 757.564C2407.81 757.636 2408.54 757.667 2409.28 757.655C2473.95 756.584 2578.68 716.72 2641.49 692.811C2660.11 685.721 2675.05 680.034 2684.17 677.178C2716.06 667.188 2781.75 611.04 2810.62 584.214C2835.82 566.177 2905.45 528.713 2982.42 523.163C3059.39 517.613 3228.45 434.362 3258.34 410.774L3302.32 395.511L3313.66 382H-289.661L-278.322 395.511L-234.34 410.774Z" fill="#C9CAC9"/>
    <path d="M1465.84 346.883C1435.95 323.295 1266.89 240.044 1189.92 234.494C1112.95 228.944 1043.32 191.481 1018.12 173.443C989.255 146.617 923.557 90.4691 891.67 80.4789C882.553 77.6228 867.614 71.936 848.988 64.8461C786.176 40.9373 681.448 1.07282 616.783 0.0026457C615.87 -0.0124565 614.97 0.0371472 614.08 0.150138C613.191 0.0371472 612.29 -0.0124564 611.378 0.0026457C546.713 1.07282 441.984 40.9372 379.173 64.8461C360.547 71.9359 345.607 77.6228 336.491 80.4789C304.604 90.4691 238.906 146.617 210.043 173.443C184.845 191.481 115.207 228.944 38.2386 234.494C-38.7297 240.044 -207.785 323.295 -237.679 346.883L-281.661 362.146L-293 382.303H3310.32L3298.98 362.146L3255 346.883C3225.11 323.295 3056.05 240.044 2979.08 234.494C2902.11 228.944 2832.48 191.481 2807.28 173.443C2778.42 146.617 2712.72 90.4691 2680.83 80.4789C2671.71 77.6228 2656.77 71.936 2638.15 64.8461C2575.34 40.9372 2470.61 1.07282 2405.94 0.0026457C2405.2 -0.00963267 2404.47 0.0208597 2403.74 0.0934141C2403.01 0.0208597 2402.28 -0.00963267 2401.54 0.0026457C2336.87 1.07282 2232.15 40.9372 2169.33 64.8461C2150.71 71.936 2135.77 77.6228 2126.65 80.4789C2094.76 90.4691 2029.07 146.617 2000.2 173.443C1975.01 191.481 1905.37 228.944 1828.4 234.494C1751.43 240.044 1582.38 323.295 1552.48 346.883L1509.16 361.917L1465.84 346.883Z" fill="#C9CAC9"/>
</svg>
