<svg width="3024" height="636" viewBox="0 0 3024 636" fill="none" xmlns="http://www.w3.org/2000/svg">
    <path d="M-537.516 241.613C-338.797 232.297 97.6743 92.5543 174.855 52.9604L288 27.4331L401.145 52.9604C478.326 92.5543 914.798 232.297 1113.52 241.613C1312.24 250.93 1492.03 313.814 1557.09 344.091C1631.61 389.12 1801.23 483.368 1883.55 500.138C1907.09 504.932 1945.66 514.478 1993.75 526.378C2155.92 566.511 2426.31 633.426 2593.26 635.222C2598.31 635.277 2603.22 634.832 2608 633.91C2612.78 634.832 2617.69 635.277 2622.74 635.222C2789.69 633.426 3060.08 566.511 3222.25 526.378C3270.34 514.478 3308.91 504.932 3332.45 500.138C3414.77 483.368 3584.4 389.12 3658.92 344.091C3723.97 313.814 3903.77 250.93 4102.48 241.613C4301.2 232.297 4737.67 92.5543 4814.86 52.9604L4928.41 27.3409L4957.68 0.000244141L-2184.04 0C-2200.6 292.684 -2190.43 637.086 -2017.26 635.222C-1850.31 633.426 -1579.92 566.511 -1417.75 526.378C-1369.66 514.477 -1331.09 504.932 -1307.55 500.138C-1225.23 483.368 -1055.6 389.12 -981.085 344.091C-916.028 313.814 -736.235 250.93 -537.516 241.613Z" fill="#687E5E"/>
</svg>
