<svg width="3024" height="644" viewBox="0 0 3024 644" fill="none" xmlns="http://www.w3.org/2000/svg">
    <path d="M183.146 393.654C312.943 402.971 598.033 542.728 648.445 582.326C648.445 582.326 676.25 607.751 720.868 607.344C765.487 606.938 753.596 600.714 793.292 582.326C832.987 563.938 1128.79 402.971 1258.59 393.654C1388.39 384.337 1505.82 321.447 1548.32 291.166C1596.99 246.134 1707.78 151.876 1761.55 135.105C1776.93 130.31 1802.12 120.764 1833.53 108.862C1939.46 68.7255 2116.07 1.80388 2225.12 0.00734333C2226.04 -0.00788801 2226.96 0.0160875 2227.87 0.0787897C2228.78 0.0160875 2229.7 -0.00788801 2230.62 0.00734333C2339.67 1.80388 2516.28 68.7255 2622.2 108.862C2653.61 120.764 2678.81 130.31 2694.18 135.105C2747.96 151.876 2858.75 246.134 2907.42 291.166C2929.14 306.644 2971.47 327 3024 348.008C3074.23 368.1 3133.69 389.1 3197.15 393.654C3326.94 402.971 3612.03 542.728 3662.45 582.326L3736.61 607.948L3755.74 644L-892.316 643.997C-903.132 351.285 -896.488 -1.85607 -783.379 0.00734333C-674.33 1.80388 -497.719 68.7255 -391.796 108.862C-360.386 120.764 -335.191 130.31 -319.818 135.105C-266.045 151.876 -155.254 246.134 -106.58 291.166C-64.0868 321.447 53.3487 384.337 183.146 393.654Z" fill="#687E5E"/>
</svg>
