<svg width="3024" height="701" viewBox="0 0 3024 701" fill="none" xmlns="http://www.w3.org/2000/svg">
    <path d="M1465.84 346.575C1435.95 323.025 1266.89 239.908 1189.92 234.367C1112.95 228.825 1043.32 191.423 1018.12 173.414C989.255 146.632 923.557 90.5735 891.67 80.5994C882.553 77.7479 867.614 72.0703 848.988 64.9918C786.176 41.1214 681.448 1.3211 616.783 0.252641C615.87 0.237564 614.97 0.287087 614.08 0.399896C613.191 0.287087 612.29 0.237564 611.378 0.252641C546.713 1.32109 441.984 41.1214 379.173 64.9918C360.547 72.0701 345.607 77.7479 336.491 80.5994C304.604 90.5735 238.906 146.632 210.043 173.414C184.845 191.423 115.207 228.825 38.2386 234.367C27.2204 235.16 14.1179 237.43 0.00390625 241C-84.4765 262.371 -212.064 326.396 -237.679 346.575L-281.661 361.813L-293 381.938L2.21991 701.001C2.21991 701.001 891.25 701.001 1004.5 701.001C1117.75 701.001 2036.25 634.822 2478.25 645.822C2920.25 656.822 3025.25 699.251 3025.25 699.251L3310.32 381.938L3298.98 361.813L3255 346.575C3230.01 326.889 3101.81 241.75 3024.02 240.984C3016.89 240.984 2991.71 235.276 2979.08 234.367C2534.68 202.373 2307.69 199.861 1828.4 234.367C1751.43 239.908 1582.38 323.025 1552.48 346.575C1536 357.405 1522.19 361.768 1509.16 361.584C1495.45 361.391 1478.46 356.518 1465.84 346.575Z" fill="#C9CAC9"/>
</svg>