<svg width="3024" height="644" viewBox="0 0 3024 644" fill="none" xmlns="http://www.w3.org/2000/svg">
    <path d="M182.409 393.682C312.206 402.998 597.296 542.741 647.708 582.335L720.132 607.351L792.555 582.335C842.967 542.741 1128.06 402.998 1257.85 393.682C1387.65 384.366 1505.09 321.481 1547.58 291.204C1596.25 246.175 1707.04 151.927 1760.82 135.157C1776.19 130.363 1801.39 120.818 1832.8 108.917C1938.72 68.7843 2115.33 1.86913 2224.38 0.0727723C2225.3 0.0575424 2226.22 0.0815156 2227.13 0.144212C2228.04 0.0815156 2228.96 0.0575424 2229.88 0.0727723C2338.93 1.86913 2515.54 68.7843 2621.47 108.917C2652.88 120.818 2678.07 130.363 2693.45 135.157C2747.22 151.927 2858.01 246.175 2906.68 291.204C2949.18 321.481 3066.61 384.366 3196.41 393.682C3326.21 402.998 3611.3 542.741 3661.71 582.335L3735.88 607.954L3755 644.003L-893.053 644C-903.869 351.316 -897.225 -1.79047 -784.116 0.0727723C-675.067 1.86913 -498.456 68.7843 -392.533 108.917C-361.122 120.818 -335.928 130.363 -320.555 135.157C-266.782 151.927 -155.991 246.175 -107.317 291.204C-64.8236 321.481 52.6119 384.366 182.409 393.682Z" fill="#687E5E"/>
</svg>
