<svg width="3024" height="739" viewBox="0 0 3024 739" fill="none" xmlns="http://www.w3.org/2000/svg">
    <path d="M-756 322.5L-715.111 522L-31.3368 516.133C-31.3368 516.133 161.485 515.603 184.783 518.153C193.193 519.08 218.47 520.674 250.292 522.682C306.635 526.236 383.494 531.085 423.569 535.813C471.652 541.48 548.528 543.482 599.599 544.812L599.608 544.812C615.129 545.217 628.265 545.559 637.485 545.923C677.044 547.503 788.85 583.022 811.842 592.117C834.824 601.203 935.382 646.104 958.206 658.476C970.112 664.921 1020.06 676.592 1067.59 687.696L1067.59 687.696C1111.17 697.878 1152.71 707.584 1161.01 712.347C1191.91 730.05 1212.97 729.862 1258.36 729.457C1285.09 729.219 1320.27 728.905 1370.86 732.126C1373.88 732.317 1377.83 732.788 1382.88 733.389C1411.05 736.744 1473.27 744.153 1596.22 729.594C1651.33 723.067 1766.59 685.69 1844.09 633.049C1868.85 616.23 1897.95 604.964 1930.53 592.351C1951.86 584.093 1974.68 575.257 1998.75 563.907C2004.81 561.052 2010.64 558.284 2016.34 555.578C2069.95 530.125 2112.03 510.145 2222.86 474.598C2293.56 451.927 2426.19 426.639 2494.88 413.544L2494.88 413.542C2510.71 410.525 2523.14 408.156 2530.63 406.614C2551.1 402.407 2609.6 391.998 2665.27 382.092L2665.28 382.09C2718.44 372.63 2769.02 363.629 2781.47 360.923C3046.59 303.311 3484.35 393.106 3780 380L3774.72 322.5H-756Z" fill="#C4C4C4"/>
    <path d="M3777 323L3754.93 289.371C3754.93 289.371 3735.84 285.996 3733.25 285.847C3731.95 285.772 3724.31 284.903 3716.68 284.033L3716.67 284.032C3709.04 283.163 3701.41 282.294 3700.11 282.22C3699.03 282.158 3693 281.314 3685.97 280.329C3676.15 278.954 3664.36 277.303 3661.33 277.124C3656.15 276.827 3617.83 272.893 3616.3 272.233C3614.77 271.573 3526.83 260.795 3526.83 260.795C3526.83 260.795 3454.78 254.899 3449.59 254.592C3444.4 254.285 3385.79 250.305 3360.73 241.48C3340.44 234.337 3310.86 228.882 3289.38 224.922C3284.33 223.989 3279.72 223.14 3275.79 222.371L3255.17 218.335C3255.17 218.335 3184.88 197.821 3172.05 194.241C3167.44 192.957 3157.15 190.468 3145.22 187.585C3123.88 182.427 3097.32 176.006 3088.79 172.964C3075.49 168.222 3023.69 152.748 3002.47 150.377C3000.23 150.127 2997.9 149.859 2995.5 149.583L2995.47 149.579C2975.13 147.239 2949.89 144.335 2933.94 146.945C2916.11 149.875 2843.82 159.248 2829.18 160.662C2814.6 162.069 2804.25 161.476 2801.59 161.324L2801.56 161.322C2800.22 161.245 2796.08 159.2 2790.29 156.339L2790.28 156.336C2784.83 153.644 2777.92 150.23 2770.51 147.057C2763.09 143.875 2759.64 142.393 2757.87 141.635C2756.55 141.071 2756.17 140.908 2755.79 140.743L2753.7 139.841C2753.7 139.841 2730.62 132.829 2713.06 130.114C2695.5 127.389 2667.98 115.598 2667.98 115.598C2667.98 115.598 2594.25 80.1587 2574.24 74.4583C2554.22 68.758 2482.87 48.7462 2457.98 46.7283C2450.42 46.115 2439.02 45.2783 2426.59 44.3655C2398.11 42.2752 2364.2 39.7857 2358.45 38.6659C2350.21 37.0571 2322.54 28.0835 2313.38 24.1499C2304.2 20.2164 2239.11 0 2239.11 0C2239.11 0 2174.01 20.2164 2164.83 24.1499C2155.67 28.0835 2128 37.0571 2119.76 38.6659C2114.01 39.7857 2080.1 42.275 2051.62 44.3654L2051.62 44.3655L2051.62 44.3658C2039.19 45.2784 2027.79 46.115 2020.23 46.7283C1995.34 48.7462 1923.99 68.758 1903.97 74.4583C1883.96 80.1587 1810.24 115.598 1810.24 115.598C1810.24 115.598 1782.71 127.389 1765.15 130.114C1747.59 132.829 1724.51 139.841 1724.51 139.841L1722.42 140.743C1722.06 140.9 1721.69 141.057 1720.52 141.561C1718.8 142.295 1715.37 143.768 1707.7 147.057C1700.28 150.231 1693.37 153.646 1687.92 156.339L1687.92 156.34C1682.13 159.2 1677.99 161.245 1676.65 161.322L1676.62 161.324C1673.96 161.476 1663.61 162.069 1649.03 160.662C1634.39 159.248 1562.1 149.875 1544.27 146.945C1528.32 144.335 1503.08 147.239 1482.74 149.579L1482.73 149.58C1480.33 149.857 1477.99 150.126 1475.74 150.377C1454.52 152.748 1402.72 168.222 1389.42 172.964C1380.89 176.006 1354.34 182.426 1333 187.584L1332.99 187.585L1332.99 187.586C1321.06 190.469 1310.76 192.957 1306.16 194.241C1293.33 197.821 1223.04 218.335 1223.04 218.335L1202.42 222.371C1198.49 223.14 1193.88 223.989 1188.83 224.922C1167.35 228.882 1137.77 234.337 1117.48 241.48C1092.42 250.305 1033.81 254.285 1028.62 254.592C1023.43 254.899 951.383 260.795 951.383 260.795C951.383 260.795 863.44 271.573 861.911 272.233C860.381 272.893 822.062 276.827 816.875 277.124C813.852 277.303 802.065 278.954 792.24 280.329L792.235 280.33C785.203 281.314 779.179 282.158 778.095 282.22C776.796 282.294 769.163 283.164 761.53 284.033C753.896 284.903 746.263 285.772 744.964 285.847C744.274 285.886 742.412 286.155 740.053 286.528C737.693 286.155 735.831 285.886 735.141 285.847C733.843 285.772 726.209 284.903 718.575 284.033C710.942 283.164 703.309 282.294 702.01 282.22C700.926 282.158 694.899 281.314 687.865 280.329C678.041 278.954 666.253 277.303 663.23 277.124C658.043 276.827 619.724 272.893 618.195 272.233C616.665 271.573 528.722 260.795 528.722 260.795C528.722 260.795 456.674 254.899 451.487 254.592C446.3 254.285 387.685 250.305 362.621 241.48C342.333 234.337 312.752 228.882 291.278 224.922C286.222 223.989 281.616 223.14 277.686 222.371L257.066 218.335C257.066 218.335 186.778 197.821 173.942 194.241C169.34 192.957 159.042 190.468 147.112 187.584C125.773 182.426 99.2114 176.006 90.6824 172.964C77.3855 168.222 25.5819 152.748 4.36316 150.377C2.11481 150.125 -0.226135 149.856 -2.63617 149.579C-22.971 147.239 -48.2192 144.335 -64.1641 146.945C-81.9988 149.875 -154.286 159.248 -168.925 160.662C-183.501 162.069 -193.858 161.476 -196.511 161.324L-196.544 161.322C-197.882 161.245 -202.022 159.2 -207.812 156.34C-213.263 153.647 -220.177 150.232 -227.591 147.057C-240.524 141.511 -241.421 141.129 -242.317 140.743C-242.48 140.673 -242.643 140.603 -242.879 140.501L-244.408 139.841C-244.408 139.841 -267.481 132.829 -285.043 130.114C-302.604 127.389 -330.129 115.598 -330.129 115.598C-330.129 115.598 -403.852 80.1587 -423.866 74.4583C-443.88 68.758 -515.236 48.7462 -540.121 46.7283C-547.684 46.1149 -559.082 45.2783 -571.516 44.3655C-599.992 42.2751 -633.905 39.7857 -639.651 38.6659C-647.898 37.0571 -675.56 28.0835 -684.73 24.1499C-693.908 20.2164 -759 0 -759 0L-759 323H3777Z" fill="#C4C4C4"/>
</svg>
