<svg width="3024" height="1180" viewBox="0 0 3024 1180" fill="none" xmlns="http://www.w3.org/2000/svg">
    <path fill-rule="evenodd" clip-rule="evenodd" d="M-755.012 899V918.631C-736.215 922.894 -693.205 931.162 -667.767 936.052L-667.751 936.055L-667.749 936.055C-656.882 938.144 -649.225 939.616 -648.041 939.894C-647.365 940.052 -647.139 940.105 -646.913 940.158L-646.281 940.307C-645.698 940.444 -644.578 940.707 -641.923 941.33C-640.257 941.721 -636.086 942.415 -630.581 943.331C-615.872 945.779 -591.634 949.812 -580.152 953.894C-570.709 957.251 -545.024 956.19 -523.734 955.311L-523.729 955.31C-509.448 954.721 -497.144 954.213 -493.047 955.175C-484.954 957.076 -469.06 955.987 -456.178 955.105C-452.817 954.875 -449.661 954.659 -446.902 954.514C-442.698 954.297 -440.879 954.09 -440.312 953.914C-439.964 953.945 -439.574 953.978 -439.142 954.015C-432.58 954.573 -416.257 955.96 -390.151 962.077C-367.363 967.419 -341.987 967.781 -323.691 968.042H-323.685C-315.764 968.155 -309.17 968.249 -304.688 968.72C-293.516 969.895 -281.352 979.989 -266.966 991.928C-262.25 995.841 -257.296 999.953 -252.059 1004.01C-230.847 1020.46 -141.451 1035.68 -114.368 1040.11C-87.286 1044.55 82.9435 1067.22 82.9435 1067.22C82.9435 1067.22 128.793 1081.8 180.761 1097.81C232.729 1113.82 321.983 1136.65 389.482 1144.82C456.981 1152.98 622.475 1155.42 622.475 1155.42C622.475 1155.42 656.62 1165.33 677.029 1170.12C689.79 1173.11 728.78 1177.02 756.213 1179.52V1179.57L756.5 1179.55L756.787 1179.57V1179.52C784.22 1177.02 823.21 1173.11 835.971 1170.12C856.38 1165.33 890.525 1155.42 890.525 1155.42C890.525 1155.42 1056.02 1152.98 1123.52 1144.82C1191.02 1136.65 1280.27 1113.82 1332.24 1097.81C1384.21 1081.8 1430.06 1067.22 1430.06 1067.22C1430.06 1067.22 1600.29 1044.55 1627.37 1040.11C1654.45 1035.68 1743.85 1020.46 1765.06 1004.01C1770.29 999.956 1775.24 995.848 1779.95 991.938L1779.96 991.932L1779.97 991.928C1794.35 979.989 1806.52 969.895 1817.69 968.72C1822.17 968.249 1828.76 968.155 1836.68 968.042H1836.69C1854.99 967.781 1880.36 967.419 1903.15 962.077C1929.26 955.96 1945.58 954.573 1952.14 954.015C1952.57 953.978 1952.96 953.945 1953.31 953.914C1953.88 954.09 1955.7 954.297 1959.9 954.514C1962.66 954.659 1965.82 954.875 1969.18 955.105C1982.06 955.987 1997.95 957.076 2006.05 955.175C2010.14 954.213 2022.45 954.721 2036.73 955.31L2036.73 955.311C2058.02 956.19 2083.71 957.251 2093.15 953.894C2104.63 949.812 2128.87 945.779 2143.58 943.331C2149.09 942.415 2153.26 941.721 2154.92 941.33C2159.01 940.372 2159.46 940.265 2159.91 940.158L2161.04 939.894C2162.23 939.616 2169.88 938.144 2180.75 936.055L2180.78 936.049C2206.22 931.16 2249.2 922.896 2268 918.634C2286.8 922.896 2329.77 931.156 2355.2 936.046L2355.25 936.055C2366.12 938.144 2373.77 939.616 2374.96 939.894L2376.45 940.243C2376.95 940.36 2377.94 940.594 2381.08 941.33C2382.74 941.721 2386.91 942.415 2392.42 943.331C2407.13 945.779 2431.37 949.812 2442.85 953.894C2452.29 957.251 2477.98 956.19 2499.27 955.311L2499.27 955.311C2513.55 954.721 2525.86 954.213 2529.95 955.175C2538.05 957.076 2553.94 955.987 2566.82 955.105C2570.18 954.875 2573.34 954.659 2576.1 954.514C2580.3 954.297 2582.12 954.09 2582.69 953.914C2583.04 953.945 2583.43 953.978 2583.86 954.015C2590.42 954.573 2606.74 955.96 2632.85 962.077C2655.64 967.419 2681.01 967.781 2699.31 968.042L2699.32 968.042C2707.24 968.155 2713.83 968.249 2718.31 968.72C2729.48 969.895 2741.65 979.989 2756.03 991.928L2756.04 991.932C2760.75 995.844 2765.71 999.954 2770.94 1004.01C2792.15 1020.46 2881.55 1035.68 2908.63 1040.11C2935.71 1044.55 3105.94 1067.22 3105.94 1067.22C3105.94 1067.22 3151.79 1081.8 3203.76 1097.81C3255.73 1113.82 3344.98 1136.65 3412.48 1144.82C3479.98 1152.98 3645.47 1155.42 3645.47 1155.42C3645.47 1155.42 3679.62 1165.33 3700.03 1170.12C3712.88 1173.14 3752.33 1177.07 3779.79 1179.57V899H-755.012ZM2580.73 953.687C2581.03 953.759 2581.71 953.832 2582.69 953.914C2583.93 953.542 2579.33 953.356 2580.73 953.687ZM1955.27 953.687C1956.67 953.356 1952.07 953.542 1953.31 953.914C1954.29 953.832 1954.97 953.759 1955.27 953.687ZM-442.273 953.687C-441.966 953.759 -441.292 953.832 -440.312 953.914C-439.072 953.542 -443.666 953.356 -442.273 953.687Z" fill="#C4C4C4"/>
    <path d="M-749.343 870.541H-755L-755.012 870.52V899H3779.8V883.941H3780.01V0C3780.01 0 3718.64 44.1376 3710.46 51.2873C3702.27 58.4473 3676.37 77.5302 3668.19 82.3035C3662.45 85.6472 3626.61 101.868 3596.75 115.383C3583.98 121.162 3572.31 126.445 3564.55 130.016C3538.63 141.939 3470.45 188.463 3451.36 201.585C3432.28 214.706 3368.18 275.54 3368.18 275.54C3368.18 275.54 3343.64 297.01 3325.91 306.556C3308.18 316.103 3286.37 331.611 3286.37 331.611L3284.51 333.249C3284.19 333.534 3283.86 333.817 3282.82 334.729C3281.29 336.064 3278.23 338.744 3271.38 344.743C3264.79 350.514 3258.83 356.282 3254.13 360.836L3254.12 360.84C3249.11 365.701 3245.52 369.179 3244.11 369.797L3244.02 369.836C3241.15 371.085 3230.31 375.808 3214.11 380.532C3197.74 385.306 3115.92 406.775 3095.47 411.548C3077.18 415.813 3051.28 428.647 3030.41 438.99L3030.4 438.999C3027.91 440.229 3025.5 441.424 3023.19 442.565C3001.37 453.299 2952.27 487.89 2940 497.437C2932.13 503.562 2906.29 519.995 2885.54 533.194L2885.53 533.2C2873.94 540.571 2863.94 546.932 2859.55 549.923C2847.26 558.271 2780.45 604.795 2780.45 604.795L2759.99 616.729C2756.09 619.003 2751.5 621.624 2746.46 624.501C2725.06 636.716 2695.57 653.542 2676.81 668.026C2653.62 685.921 2592.27 713.352 2586.81 715.739C2581.35 718.125 2506.35 752.716 2506.35 752.716C2506.35 752.716 2416.34 798.052 2414.99 799.241C2413.62 800.439 2374.07 819.522 2368.62 821.909C2365.44 823.3 2353.45 829.557 2343.47 834.77L2343.46 834.775L2343.45 834.782C2336.32 838.506 2330.21 841.695 2329.07 842.19C2327.75 842.774 2320.28 846.467 2312.65 850.241C2304.61 854.219 2296.39 858.287 2294.99 858.897C2292.62 859.932 2278.01 868.109 2274.15 870.273L2273.67 870.541H2268.01V870.52L2268.01 870.53L2268 870.52V870.541H2262.34L2261.86 870.273C2258 868.109 2243.39 859.932 2241.02 858.897C2239.62 858.287 2231.4 854.219 2223.36 850.241C2215.73 846.467 2208.26 842.774 2206.94 842.19C2205.8 841.695 2199.7 838.506 2192.56 834.782L2192.55 834.775L2192.54 834.77L2192.51 834.753C2182.53 829.544 2170.57 823.298 2167.4 821.909C2161.94 819.522 2122.4 800.439 2121.03 799.241C2119.67 798.052 2029.66 752.716 2029.66 752.716C2029.66 752.716 1954.66 718.125 1949.2 715.739C1943.75 713.352 1882.39 685.921 1859.2 668.026C1840.44 653.542 1810.95 636.716 1789.55 624.5C1784.51 621.624 1779.92 619.003 1776.02 616.729L1755.56 604.795C1755.56 604.795 1688.75 558.271 1676.47 549.923C1672.07 546.932 1662.07 540.572 1650.48 533.202C1629.73 520.002 1603.89 503.563 1596.01 497.437C1583.74 487.89 1534.64 453.299 1512.83 442.565C1511.81 442.065 1510.78 441.555 1509.73 441.036C1508.38 440.367 1507 439.684 1505.6 438.989C1484.73 428.647 1458.83 415.813 1440.54 411.548C1420.09 406.775 1338.27 385.306 1321.9 380.532C1305.71 375.809 1294.86 371.086 1291.99 369.836L1291.99 369.836L1291.91 369.797C1290.5 369.179 1286.91 365.704 1281.89 360.845L1281.89 360.842L1281.89 360.84L1281.89 360.839C1277.18 356.284 1271.23 350.515 1264.63 344.743C1256.23 337.386 1253.53 335.02 1252.37 334.007C1251.91 333.61 1251.7 333.421 1251.47 333.22L1249.65 331.611C1249.65 331.611 1227.83 316.103 1210.1 306.556C1192.38 297.01 1167.83 275.54 1167.83 275.54C1167.83 275.54 1103.73 214.706 1084.65 201.585C1065.56 188.463 997.378 141.939 971.465 130.016C963.705 126.446 952.033 121.163 939.268 115.386L939.255 115.38C909.394 101.866 873.558 85.6469 867.825 82.3035C859.64 77.5302 833.739 58.4473 825.554 51.2873C817.987 44.6774 764.963 6.45344 757 0.719759V0L756.5 0.359796L756 0V0.719759C748.037 6.45344 695.013 44.6774 687.446 51.2873C679.261 58.4473 653.36 77.5302 645.175 82.3035C639.442 85.647 603.603 101.867 573.742 115.381L573.736 115.384L573.732 115.386C560.967 121.163 549.295 126.446 541.535 130.016C515.622 141.939 447.438 188.463 428.352 201.585C409.265 214.706 345.168 275.54 345.168 275.54C345.168 275.54 320.625 297.01 302.897 306.556C285.169 316.103 263.354 331.611 263.354 331.611L261.996 332.809C261.323 333.404 261.317 333.409 259.822 334.716L259.789 334.745C258.257 336.085 255.19 338.768 248.366 344.743C241.774 350.514 235.818 356.283 231.115 360.838L231.113 360.84C226.094 365.702 222.504 369.179 221.095 369.797L221.007 369.836C218.14 371.085 207.295 375.808 191.095 380.532C174.726 385.306 92.9119 406.775 72.4556 411.548C54.1684 415.813 28.2729 428.647 7.40411 438.989L7.401 438.991C4.91315 440.224 2.49683 441.421 0.173279 442.565C-21.6414 453.299 -70.739 487.89 -83.0105 497.437C-90.8851 503.563 -116.73 520.002 -137.482 533.201L-137.483 533.202L-137.488 533.205L-137.492 533.207C-149.075 540.575 -159.07 546.932 -163.466 549.923C-175.749 558.271 -242.563 604.795 -242.563 604.795L-263.02 616.729C-266.916 619.002 -271.505 621.621 -276.542 624.495L-276.551 624.5C-297.955 636.716 -327.437 653.542 -346.203 668.026C-369.388 685.921 -430.745 713.352 -436.202 715.739C-441.659 718.125 -516.657 752.716 -516.657 752.716C-516.657 752.716 -606.668 798.052 -608.026 799.241C-609.396 800.439 -648.939 819.522 -654.395 821.909C-657.576 823.3 -669.561 829.559 -679.543 834.772L-679.549 834.775L-679.555 834.778C-686.691 838.504 -692.801 841.695 -693.938 842.19C-695.26 842.774 -702.726 846.466 -710.356 850.24L-710.365 850.245L-710.405 850.265C-718.432 854.235 -726.627 858.288 -728.024 858.897C-730.389 859.931 -744.972 868.094 -748.853 870.267L-748.87 870.276L-748.879 870.281L-749.343 870.541Z" fill="#C4C4C4"/>
</svg>
