<?xml version="1.0" standalone="no"?>
<!DOCTYPE svg PUBLIC "-//W3C//DTD SVG 20010904//EN"
 "http://www.w3.org/TR/2001/REC-SVG-20010904/DTD/svg10.dtd">
<svg version="1.0" xmlns="http://www.w3.org/2000/svg"
 width="808.000000pt" height="808.000000pt" viewBox="0 0 808.000000 808.000000"
 preserveAspectRatio="xMidYMid meet">
<metadata>
Created by potrace 1.11, written by Peter Selinger 2001-2013
</metadata>
<g transform="translate(0.000000,808.000000) scale(0.100000,-0.100000)"
fill="#000000" stroke="none">
<path d="M3806 8003 c-2 -2 -39 -6 -82 -8 -129 -8 -237 -22 -389 -50 -44 -8
-91 -16 -105 -19 -144 -25 -479 -124 -632 -187 -36 -15 -69 -25 -72 -21 -3 3
-6 0 -6 -6 0 -7 -7 -12 -16 -12 -21 0 -414 -191 -414 -202 0 -4 -5 -8 -12 -8
-16 0 -252 -145 -308 -190 -14 -11 -31 -20 -38 -20 -7 0 -11 -4 -8 -9 3 -4 -5
-13 -19 -19 -29 -13 -147 -102 -158 -119 -4 -7 -12 -13 -17 -13 -5 0 -21 -11
-36 -25 -16 -14 -48 -43 -72 -63 -25 -20 -113 -104 -197 -187 -132 -131 -193
-197 -271 -293 -11 -13 -27 -33 -38 -45 -10 -12 -32 -41 -49 -64 -17 -24 -34
-43 -39 -43 -4 0 -8 -4 -8 -10 0 -8 -51 -86 -83 -125 -73 -92 -357 -603 -357
-644 0 -5 -7 -22 -15 -38 -20 -38 -43 -95 -47 -113 -2 -8 -6 -17 -9 -20 -6 -5
-89 -248 -93 -272 -1 -7 -4 -17 -7 -23 -7 -11 -59 -206 -66 -245 -2 -14 -8
-41 -13 -60 -10 -39 -18 -77 -26 -130 -2 -19 -8 -48 -11 -65 -4 -16 -7 -39 -8
-50 -1 -11 -5 -42 -10 -70 -4 -27 -9 -70 -11 -95 -1 -25 -4 -45 -4 -45 -6 0
-14 -205 -14 -385 0 -199 5 -326 19 -440 2 -19 6 -57 10 -85 3 -27 9 -72 14
-100 6 -27 13 -67 16 -89 8 -46 13 -72 20 -106 3 -14 7 -34 9 -46 9 -47 40
-166 68 -259 16 -55 31 -104 32 -110 2 -5 6 -19 10 -30 5 -11 12 -31 16 -45 4
-14 12 -34 16 -45 4 -11 8 -23 9 -27 2 -5 4 -10 5 -13 1 -3 3 -8 5 -12 1 -5 6
-19 12 -33 6 -14 20 -47 31 -75 88 -220 276 -572 395 -738 9 -12 34 -46 54
-75 113 -160 250 -321 449 -526 14 -14 180 -167 219 -201 121 -106 414 -312
582 -408 106 -61 333 -178 333 -171 0 2 10 -2 22 -10 37 -24 343 -145 403
-160 6 -1 37 -11 70 -21 33 -10 66 -19 73 -21 7 -1 36 -9 65 -18 50 -14 205
-51 257 -60 14 -3 34 -7 45 -9 11 -3 45 -8 75 -13 56 -8 68 -10 73 -13 1 -1
25 -4 52 -6 28 -3 64 -7 80 -9 131 -21 646 -29 794 -12 35 3 87 8 115 10 28 2
58 7 66 10 8 3 38 7 65 10 28 2 50 5 50 6 0 1 12 3 26 5 60 8 107 16 165 30
34 8 73 16 85 19 13 3 58 14 99 25 41 12 89 24 105 28 17 3 36 10 43 16 6 5
12 7 12 4 0 -7 220 67 277 94 24 10 45 19 49 19 19 0 433 195 444 210 3 3 37
24 75 45 39 21 81 46 95 55 14 10 50 33 80 53 242 157 456 333 661 542 48 50
96 99 106 111 10 12 41 48 70 80 73 83 172 211 240 307 31 45 62 85 68 89 6 5
6 8 0 8 -7 0 -7 3 0 8 12 8 85 119 85 128 0 3 9 19 21 35 21 30 39 63 126 229
55 105 156 337 156 357 0 7 4 13 9 13 4 0 8 4 8 9 0 5 5 22 12 38 6 15 12 30
12 33 1 3 18 59 39 125 52 162 65 206 70 235 3 14 10 45 17 70 7 25 14 54 16
65 2 11 6 31 9 45 3 14 8 41 11 60 4 19 8 44 10 55 2 11 7 36 10 55 4 19 8 44
11 55 2 11 6 44 8 72 3 29 7 65 9 80 20 119 28 593 14 758 -16 176 -19 201
-32 275 -2 14 -10 59 -17 100 -7 41 -13 77 -14 80 -2 6 -13 62 -20 100 -7 43
-42 174 -53 201 -6 15 -8 29 -6 32 3 3 1 13 -5 24 -5 10 -24 63 -41 118 -17
55 -34 109 -39 120 -5 11 -30 74 -57 140 -52 131 -133 305 -155 331 -8 10 -12
18 -9 18 5 1 -72 142 -117 213 -18 29 -33 57 -33 63 0 5 -4 10 -9 10 -5 0 -16
15 -25 33 -26 52 -209 302 -273 374 -15 17 -44 51 -63 75 -41 51 -327 338
-386 388 -101 85 -142 118 -208 168 -39 29 -78 59 -87 67 -62 50 -391 255
-409 255 -6 0 -10 5 -10 10 0 6 -3 9 -7 8 -5 -1 -23 6 -42 16 -34 18 -34 18
-28 -3 3 -12 2 -35 -3 -51 -4 -16 -6 -31 -3 -34 9 -9 12 -66 3 -71 -6 -3 -6
-38 0 -55 2 -7 2 -203 0 -215 -1 -5 -1 -12 0 -15 6 -15 5 -69 -1 -92 -4 -14
-5 -29 -2 -32 9 -9 12 -66 3 -71 -5 -3 -6 -50 0 -50 6 0 4 -57 -2 -61 -5 -3
-5 -10 -1 -17 10 -16 11 -57 2 -89 -4 -14 -5 -29 -2 -32 9 -9 12 -66 3 -71 -6
-3 -6 -38 0 -55 2 -7 2 -203 0 -215 -1 -5 -1 -12 0 -15 6 -15 5 -69 -1 -92 -4
-14 -5 -29 -2 -32 9 -9 12 -66 3 -71 -6 -3 -6 -38 0 -55 2 -7 2 -203 0 -215
-1 -5 -1 -12 0 -15 6 -15 5 -69 -1 -92 -4 -14 -5 -29 -2 -32 9 -9 12 -66 3
-71 -5 -3 -6 -50 0 -50 6 0 4 -57 -2 -61 -5 -3 -5 -10 -1 -17 10 -16 11 -57 2
-89 -4 -14 -5 -29 -2 -32 9 -9 12 -66 3 -71 -6 -3 -6 -38 0 -55 2 -7 2 -203 0
-215 -1 -5 -1 -12 0 -15 6 -15 5 -69 -1 -92 -4 -14 -5 -29 -2 -32 9 -9 12 -66
3 -71 -6 -3 -6 -38 0 -55 2 -7 2 -203 0 -215 -1 -5 -1 -12 0 -15 6 -15 5 -69
-1 -92 -4 -14 -5 -29 -2 -32 9 -9 12 -66 3 -71 -5 -3 -6 -50 0 -50 6 0 4 -57
-2 -61 -5 -3 -5 -10 -1 -17 10 -16 11 -57 2 -89 -4 -14 -5 -29 -2 -32 9 -9 12
-66 3 -71 -6 -3 -6 -38 0 -55 1 -3 1 -50 1 -105 -1 -55 -2 -106 -1 -112 2 -84
-7 -314 -14 -378 -3 -22 -8 -69 -11 -105 -4 -35 -9 -73 -11 -85 -3 -11 -7 -31
-9 -45 -7 -48 -35 -162 -54 -218 -82 -245 -187 -391 -356 -497 -70 -44 -232
-118 -252 -116 -2 0 -22 -6 -45 -15 -23 -8 -53 -16 -67 -19 -47 -9 -72 -14
-89 -19 -31 -9 -141 -22 -267 -30 -54 -4 -568 -8 -760 -6 l-30 0 3 73 c3 90 3
77 -1 172 -2 44 1 86 6 93 5 6 6 12 1 12 -5 0 -8 62 -7 138 3 165 3 135 0 264
l-2 107 50 0 c84 0 236 13 295 26 14 3 35 7 46 9 57 11 161 62 200 99 36 34
102 149 110 192 1 6 5 26 8 45 9 49 15 81 23 110 8 32 12 4400 4 4401 -3 0
-13 2 -21 3 -40 8 -144 20 -260 32 -78 7 -557 14 -564 7z"/>
</g>
</svg>
